<svg width="87" height="56" viewBox="0 0 87 56" fill="none" xmlns="http://www.w3.org/2000/svg">
<g id="AliPay">
<rect id="Rectangle" x="0.543945" y="0.419922" width="86.2103" height="55.1746" rx="5.17262" fill="#499FE3"/>
<g id="Group">
<path id="Vector" d="M27.8327 31.6132V21.1507C27.8327 19.3646 26.3683 17.9341 24.5822 17.9341H10.6914C8.87147 17.9341 7.44092 19.3646 7.44092 21.1507V34.8637C7.44092 36.6498 8.90533 38.0804 10.6914 38.0804H24.5483C26.3683 38.0804 27.7988 36.6498 27.7988 34.8637V34.7198C27.7988 34.7198 22.4745 32.5444 19.7996 31.2577C18.0135 33.4332 15.6941 34.7537 13.2647 34.7537C11.7664 34.7537 10.5137 34.2204 9.76875 33.4332C9.41322 33.0438 9.15928 32.5782 9.01538 32.0788C9.01538 32.045 8.98152 31.9688 8.98152 31.9349C8.98152 31.9349 8.94766 31.8672 8.94766 31.7571C8.7699 30.7922 9.0577 29.7933 9.76875 28.9384C10.2005 28.4389 10.9115 27.9395 12.0204 27.6856C13.7726 27.2539 16.5237 27.9395 19.0885 28.7945C19.5541 27.9395 19.9435 27.0084 20.2313 26.0095H12.2997V25.2223H16.4052V23.7917H11.4363V23.0045H16.3967V20.973C16.3967 20.973 16.3967 20.6174 16.7522 20.6174H18.7499V23.013H23.6934V23.8002H18.7669V25.2308H22.7623C22.3729 26.8052 21.7973 28.2273 21.0524 29.4801C22.2628 29.9118 23.3717 30.3351 24.1928 30.589C27.1555 31.5455 27.8327 31.6132 27.8327 31.6132ZM12.4013 28.8622C11.9019 28.896 10.9369 29.15 10.4036 29.5732C8.82915 30.9276 9.76028 33.3909 12.9431 33.3909C14.7969 33.3909 16.6253 32.2143 18.0812 30.352C16.0073 29.4039 14.2974 28.6844 12.4013 28.8622Z" fill="white"/>
<path id="Vector_2" d="M39.7592 32.9679H42.5102L37.3721 21.752H36.6187C36.5087 21.752 36.3648 21.7858 36.2632 21.862C36.1616 21.9382 36.0854 22.0398 36.0093 22.1498L30.7949 32.9679H32.6487L33.5798 31.1479H38.9042L39.7592 32.9679ZM36.2971 25.4003L38.5487 30.2253H33.9354L36.2971 25.4003ZM46.0824 32.9679H43.5853V22.2598C43.5853 22.1498 43.6191 22.0059 43.7292 21.9043C43.8392 21.7943 43.9408 21.7604 44.0847 21.7604H46.1163V32.9763H46.0824V32.9679ZM48.2579 25.1887C48.2579 25.0786 48.2917 24.9347 48.4018 24.867C48.5118 24.757 48.6134 24.7231 48.7573 24.7231H50.7889V32.9763H48.2494V25.1887H48.2579ZM52.8966 25.1887C52.8966 25.0786 52.9305 24.9347 53.0405 24.8332C53.1505 24.7231 53.2521 24.6892 53.396 24.6892H55.4276V25.3326C55.7154 25.0786 56.037 24.9009 56.4264 24.757C56.782 24.6131 57.2475 24.5453 57.7469 24.5453C58.2802 24.5453 58.7458 24.6554 59.2114 24.867C59.6431 25.0786 60.0324 25.3664 60.3202 25.722C60.6419 26.0775 60.8535 26.4753 61.0313 26.9748C61.2091 27.4403 61.2852 27.9397 61.2852 28.473C61.2852 29.1502 61.1752 29.7597 60.9974 30.3268C60.7858 30.9024 60.498 31.4019 60.1425 31.8251C59.787 32.2568 59.3214 32.5785 58.7881 32.824C58.2548 33.0779 57.6792 33.1795 57.002 33.1795C56.6804 33.1795 56.3926 33.1795 56.1471 33.1456C55.8931 33.1118 55.6815 33.0779 55.436 32.9679V36.2861H52.8966V25.1887ZM55.436 30.6485C55.436 30.8601 55.4699 31.0379 55.5461 31.2241C55.6138 31.4019 55.7238 31.5458 55.8677 31.6897C56.0116 31.8336 56.1556 31.9436 56.3672 32.0113C56.5449 32.079 56.7566 32.1214 57.0105 32.1214C57.2221 32.1214 57.4422 32.0536 57.62 31.9097C57.7977 31.7658 57.9755 31.5881 58.1194 31.3003C58.2633 31.0463 58.3733 30.7247 58.4749 30.3692C58.5426 30.0136 58.6188 29.6158 58.6188 29.2264C58.6188 28.6931 58.585 28.2275 58.5088 27.8297C58.4411 27.4403 58.331 27.0763 58.1871 26.8309C58.0432 26.543 57.8993 26.3653 57.7215 26.2214C57.5438 26.0775 57.3322 26.0098 57.1121 26.0098C56.9682 26.0098 56.7904 26.0436 56.6465 26.0775C56.5026 26.1452 56.3587 26.2214 56.2148 26.2891C56.0709 26.3991 55.9609 26.5007 55.8254 26.6108C55.7154 26.7547 55.5715 26.8647 55.4699 27.0001V30.64H55.436V30.6485ZM67.7947 24.7908C66.5842 24.4353 65.0436 24.4014 62.9697 24.9347C63.0375 25.1464 63.1136 25.5103 63.1814 25.722C66.4996 25.1464 67.109 25.5781 67.109 27.0086V27.4403C66.4996 27.4065 65.7885 27.2964 65.2129 27.2964C62.9613 27.2626 62.1402 29.0486 62.1402 30.1914C62.1402 32.1552 64.0363 34.009 67.1006 32.6547V32.9763H69.6739V26.9409C69.7162 25.7558 68.7174 25.0448 67.7947 24.7908ZM64.2225 30.2253C64.2225 29.2603 65.0098 28.5492 65.9748 28.473C66.5842 28.4392 66.9397 28.5407 67.1514 28.6846V31.5034C66.8297 31.7912 66.4403 31.969 65.9748 31.969C64.9674 31.969 64.2225 31.1818 64.2225 30.2253ZM70.4019 24.5453H73.0767L75.7178 29.6158L77.8932 24.867C77.9271 24.757 78.0033 24.6892 78.1049 24.6131C78.2149 24.5453 78.3165 24.5453 78.4265 24.5453H79.8571L75.6754 33.7212C74.6766 36.2183 72.2133 35.8628 71.7816 35.8628V34.4661C72.1033 34.4661 73.246 34.4661 73.7455 33.9328C73.8555 33.8228 73.9571 33.5773 74.0333 33.4334C74.1095 33.2895 74.1772 33.1456 74.2449 33.0017L74.5327 32.3245L70.4019 24.5453Z" fill="white"/>
<path id="Vector_3" d="M50.8992 22.2594C50.8992 22.9366 50.2897 23.4699 49.5448 23.4699C48.7914 23.4699 48.1904 22.9366 48.1904 22.2594C48.1904 21.5822 48.7999 21.0489 49.5448 21.0489C50.2897 21.0405 50.8992 21.5822 50.8992 22.2594Z" fill="white"/>
</g>
</g>
</svg>
