<svg width="87" height="56" viewBox="0 0 87 56" fill="none" xmlns="http://www.w3.org/2000/svg">
<g id="Amazon">
<rect id="Rectangle" x="0.540039" y="0.419922" width="86.2103" height="55.1746" rx="5.17262" fill="#333333"/>
<g id="Group">
<g id="Group_2">
<path id="Vector" fill-rule="evenodd" clip-rule="evenodd" d="M51.5738 35.8424C47.7402 38.6305 42.2511 40.1117 37.5463 40.1117C30.9246 40.1117 24.9128 37.6721 20.3821 33.5771C20.0336 33.2286 20.3822 32.793 20.7307 33.0543C25.6098 35.9295 31.7087 37.585 37.8948 37.585C42.0769 37.585 46.7818 36.7137 51.051 34.884C51.6609 34.7098 52.1837 35.4068 51.5738 35.8424Z" fill="#FF9201"/>
<path id="Vector_2" fill-rule="evenodd" clip-rule="evenodd" d="M53.1422 34.0126C52.6194 33.4027 49.9184 33.7512 48.6986 33.8383C48.3501 33.9255 48.263 33.577 48.6115 33.3156C50.7897 31.7473 54.3619 32.27 54.7975 32.7057C55.2332 33.2284 54.7104 36.8007 52.6194 38.5432C52.2708 38.8046 52.0095 38.6303 52.1837 38.2818C52.5322 37.2363 53.5778 34.7096 53.1422 34.0126Z" fill="#FF9201"/>
</g>
<path id="Vector_3" fill-rule="evenodd" clip-rule="evenodd" d="M48.7855 22.5992V21.118C48.7855 20.8567 48.9597 20.7695 49.134 20.7695H55.7557C55.9299 20.7695 56.1042 20.9438 56.1042 21.118V22.425C56.1042 22.5992 55.9299 22.9477 55.5814 23.3834L52.0963 28.3496C53.4032 28.3496 54.7102 28.5239 55.9299 29.1338C56.1913 29.308 56.2784 29.4823 56.2784 29.7437V31.3119C56.2784 31.4862 56.0171 31.7476 55.7557 31.6605C53.6646 30.6149 50.9636 30.4407 48.6983 31.6605C48.437 31.7476 48.2627 31.5733 48.2627 31.3119V29.7437C48.2627 29.4823 48.2627 29.1338 48.5241 28.6981L52.532 22.9477H49.0469C48.9597 22.9477 48.7855 22.7735 48.7855 22.5992Z" fill="white"/>
<path id="Vector_4" fill-rule="evenodd" clip-rule="evenodd" d="M24.477 31.8346H22.473C22.2988 31.8346 22.1245 31.6604 22.1245 31.4861V21.118C22.1245 20.9437 22.2988 20.7695 22.473 20.7695H24.3899C24.5641 20.7695 24.7383 20.9437 24.7383 21.118V22.512C25.2611 21.2051 26.1324 20.5952 27.4393 20.5952C28.7462 20.5952 29.5304 21.2051 30.0531 22.512C30.5759 21.2051 31.6214 20.5952 32.8412 20.5952C33.7125 20.5952 34.5837 20.9437 35.1936 21.7279C35.8035 22.5991 35.7164 23.9061 35.7164 24.9516V31.4861C35.7164 31.6604 35.5421 31.8346 35.3679 31.8346H33.364C33.1897 31.8346 33.0154 31.6604 33.0154 31.4861V25.9971C33.0154 25.5615 33.0155 24.4288 32.9283 24.0803C32.7541 23.3833 32.3184 23.209 31.7085 23.209C31.1858 23.209 30.663 23.5575 30.4888 24.0803C30.3145 24.6031 30.3145 25.4744 30.3145 26.0842V31.5733C30.3145 31.7475 30.1402 31.9218 29.966 31.9218H27.9621C27.7878 31.9218 27.6136 31.7475 27.6136 31.5733V26.0842C27.6136 24.9516 27.7878 23.209 26.3938 23.209C24.9126 23.209 24.9998 24.8645 24.9998 26.0842V31.5733C24.8255 31.6604 24.6512 31.8346 24.477 31.8346Z" fill="white"/>
<path id="Vector_5" fill-rule="evenodd" clip-rule="evenodd" d="M61.9421 20.5078C64.9916 20.5078 66.5599 23.1216 66.5599 26.3454C66.5599 29.4819 64.7302 32.0086 61.9421 32.0086C58.9798 32.0086 57.4115 29.3948 57.4115 26.1711C57.3243 23.0345 58.9798 20.5078 61.9421 20.5078ZM61.9421 22.686C60.4609 22.686 60.3738 24.6899 60.3738 25.9968C60.3738 27.3038 60.3738 30.0047 61.9421 30.0047C63.5104 30.0047 63.5976 27.8265 63.5976 26.5196C63.5976 25.6483 63.5976 24.6028 63.3362 23.7315C63.0748 22.9474 62.552 22.686 61.9421 22.686Z" fill="white"/>
<path id="Vector_6" fill-rule="evenodd" clip-rule="evenodd" d="M70.4803 31.8344H68.4764C68.3022 31.8344 68.1279 31.6601 68.1279 31.4859V21.1177C68.1279 20.9435 68.3022 20.7692 68.4764 20.7692H70.3932C70.5675 20.7692 70.7418 20.8563 70.7418 21.0306V22.5989C71.3516 21.2048 72.1357 20.5078 73.5298 20.5078C74.4011 20.5078 75.3595 20.8563 75.8822 21.7276C76.405 22.5989 76.405 23.9929 76.405 24.9513V31.4859C76.405 31.6601 76.2308 31.8344 76.0565 31.8344H74.0526C73.8783 31.8344 73.7041 31.6601 73.7041 31.4859V25.8226C73.7041 24.6899 73.8783 23.0345 72.3971 23.0345C71.8744 23.0345 71.4387 23.383 71.2645 23.9058C71.0031 24.5157 70.916 25.2127 70.916 25.9097V31.4859C70.8288 31.6601 70.6546 31.8344 70.4803 31.8344Z" fill="white"/>
<path id="Vector_7" fill-rule="evenodd" clip-rule="evenodd" d="M43.471 26.8683C43.471 27.6525 43.4711 28.3495 43.1226 29.0465C42.7741 29.6564 42.2513 30.0049 41.7285 30.0049C40.9443 30.0049 40.5087 29.395 40.5087 28.5237C40.5087 26.7812 42.077 26.5198 43.5582 26.5198V26.8683H43.471ZM45.475 31.8346C45.3008 31.9217 45.1265 31.9217 45.0394 31.9217C44.3424 31.3989 44.2552 31.1376 43.9067 30.5277C42.774 31.6603 41.9899 32.0088 40.5958 32.0088C38.8533 32.0088 37.5464 30.9633 37.5464 28.8723C37.5464 27.2168 38.4177 26.0842 39.7246 25.5614C40.8572 25.0386 42.3384 24.9515 43.5582 24.8644V24.603C43.5582 24.0803 43.5582 23.5575 43.2968 23.1218C43.0354 22.7733 42.5998 22.5991 42.1641 22.5991C41.38 22.5991 40.683 23.0347 40.5087 23.8189C40.5087 23.9931 40.3345 24.1674 40.1602 24.1674L38.1563 23.9931C37.982 23.9931 37.8078 23.8189 37.8949 23.5575C38.3306 21.205 40.5087 20.4209 42.4256 20.4209C43.384 20.4209 44.6909 20.6823 45.475 21.4664C46.4334 22.4248 46.3463 23.6446 46.3463 24.9515V28.0881C46.3463 29.0465 46.7819 29.4821 47.1304 30.0049C47.2175 30.1792 47.3047 30.4405 47.1304 30.5277C46.6076 30.8762 45.9106 31.4861 45.475 31.8346Z" fill="white"/>
<path id="Vector_8" fill-rule="evenodd" clip-rule="evenodd" d="M16.897 26.8683C16.897 27.6525 16.897 28.3495 16.5485 29.0465C16.2 29.6564 15.6772 30.0049 15.1545 30.0049C14.3703 30.0049 13.9347 29.395 13.9347 28.5237C13.9347 26.7812 15.503 26.5198 16.9842 26.5198V26.8683H16.897ZM18.901 31.8346C18.7267 31.9217 18.5524 31.9217 18.3782 31.9217C17.6812 31.3989 17.5941 31.1376 17.2455 30.5277C16.1129 31.6603 15.3288 32.0088 13.9347 32.0088C12.1922 32.0088 10.8853 30.9633 10.8853 28.8723C10.8853 27.2168 11.7565 26.0842 13.0634 25.5614C14.1961 25.0386 15.6772 24.9515 16.897 24.8644V24.603C16.897 24.0803 16.897 23.5575 16.6356 23.1218C16.3743 22.7733 15.9386 22.5991 15.503 22.5991C14.7188 22.5991 14.0218 23.0347 13.8476 23.8189C13.8476 23.9931 13.6733 24.1674 13.4991 24.1674L11.4951 23.9931C11.3209 23.9931 11.1466 23.8189 11.2338 23.5575C11.6694 21.205 13.8476 20.4209 15.7644 20.4209C16.7228 20.4209 18.0297 20.6823 18.8138 21.4664C19.7722 22.4248 19.6851 23.6446 19.6851 24.9515V28.0881C19.6851 29.0465 20.1208 29.4821 20.4693 30.0049C20.5564 30.1792 20.6435 30.4405 20.4693 30.5277C20.0336 30.8762 19.3366 31.4861 18.901 31.8346Z" fill="white"/>
</g>
</g>
</svg>
