<svg width="87" height="56" viewBox="0 0 87 56" fill="none" xmlns="http://www.w3.org/2000/svg">
<g id="American Express">
<rect id="Rectangle" x="0.536133" y="0.419922" width="86.2103" height="55.1746" rx="5.17262" fill="#306FC8"/>
<g id="Mask Group">
<mask id="mask0_1_111" style="mask-type:alpha" maskUnits="userSpaceOnUse" x="0" y="0" width="87" height="56">
<rect id="Rectangle_2" x="0.536133" y="0.245605" width="86.2103" height="55.1746" rx="5.17262" fill="url(#paint0_linear_1_111)"/>
</mask>
<g mask="url(#mask0_1_111)">
<g id="Group">
<path id="Vector" d="M37.8472 40.6517V32.6196L34.1338 36.5754L37.8472 40.6517Z" fill="white"/>
<path id="Vector_2" d="M22.2847 33.6274V35.4355L27.5943 35.4245V37.4955H22.2847V39.4789H28.2372L31.0083 36.5422L28.348 33.6274H22.2847Z" fill="white"/>
<path id="Vector_3" d="M44.842 18.4076C45.1523 18.2322 45.3408 17.8816 45.3408 17.4542C45.3408 17.0269 45.1413 16.7201 44.842 16.5557C44.5538 16.3913 44.1215 16.3804 43.6892 16.3804H40.6963V18.6158H43.6559C44.1215 18.6158 44.5094 18.5938 44.842 18.4076Z" fill="white"/>
<path id="Vector_4" d="M4.99219 19.9852H8.30652L6.64381 15.9966L4.99219 19.9852Z" fill="white"/>
<path id="Vector_5" d="M43.434 33.6274H40.2749V36.1477H43.4119C44.3319 36.1477 44.9083 35.7094 44.9083 34.8438C44.8972 33.9781 44.2987 33.6274 43.434 33.6274Z" fill="white"/>
<path id="Vector_6" d="M5.61294 24.0507H7.69686L8.63906 26.2971H16.7863V24.5876L17.5179 26.2971H21.7301L22.4617 24.5657V26.2971H42.7024V22.6372H43.1015C43.3897 22.6372 43.4673 22.67 43.4673 23.1193V26.2971H53.9312V25.4314C54.7626 25.8807 56.0706 26.2971 57.822 26.2971H62.2226L63.1759 24.0507H65.2598L66.202 26.2971H74.6597V24.1713L75.9566 26.2971H82.7515V12.3149H76.0342V13.9586L75.0698 12.3149H68.164V13.9586L67.3216 12.3149H57.9882C56.4142 12.3149 55.0286 12.5231 53.9312 13.1149V12.3149H47.5021V13.1149C46.7483 12.5122 45.8061 12.3149 44.742 12.3149H21.2091L19.6129 15.92L18.0167 12.3149H10.6121V13.9586L9.76971 12.3149H3.45141L0.536133 18.9444V26.2971H4.67073L5.61294 24.0507ZM54.3857 15.4598C55.1616 14.6599 56.4031 14.2873 58.0769 14.2873H60.3936V16.4351H58.1213C57.2234 16.4351 56.7246 16.5666 56.2479 17.0377C55.8267 17.4541 55.5385 18.2541 55.5385 19.306C55.5385 20.3799 55.7491 21.1359 56.2258 21.6619C56.5805 22.0564 57.2566 22.1769 57.9106 22.1769H58.997L62.411 14.2873H66.0247L70.1371 23.7768V14.2873H73.8394L78.0959 21.2674V14.2873H80.59V24.3247H77.1316L72.5536 16.8076V24.3247H67.6209L66.6898 22.0783H61.6462L60.7151 24.3247H57.8996C56.7135 24.3247 55.2171 24.0507 54.3746 23.207C53.5211 22.3523 53.0888 21.2017 53.0888 19.3827C53.0888 17.8924 53.3548 16.5337 54.3857 15.4598ZM49.4198 14.2873H51.9027V24.3247H49.4198V14.2873ZM38.2796 14.2873H43.8663C45.0967 14.2873 46.0057 14.3312 46.7816 14.7695C47.5575 15.2188 48.0342 15.8762 48.0342 16.9939C48.0342 18.5828 46.9479 19.4046 46.3049 19.6566C46.837 19.8539 47.2915 20.2155 47.5021 20.5114C47.8457 20.9935 47.9011 21.4537 47.9011 22.3303V24.3247H45.4625V23.0536C45.4625 22.4618 45.5179 21.5852 45.0635 21.114C44.7198 20.7524 44.1878 20.6757 43.301 20.6757H40.6961V24.3247H38.2685V14.2873H38.2796ZM28.5029 14.2873H36.5947V16.3803H30.9194V18.1883H36.4506V20.2484H30.9194V22.2317L36.5947 22.2208V24.3137H28.5029V14.2873ZM3.19647 24.3247H0.558302L4.89243 14.2873H8.50605L12.6185 23.7768V14.2873H16.5868L19.746 21.0921L22.6612 14.2873H26.6961V24.3247H24.2131V16.4679L20.6992 24.3247H18.571L15.046 16.457V24.3247H10.1022L9.17113 22.0783H4.12758L3.19647 24.3247Z" fill="white"/>
<path id="Vector_7" d="M64.1624 15.9966L62.5107 19.9852H65.814L64.1624 15.9966Z" fill="white"/>
<path id="Vector_8" d="M81.377 33.8575C81.1221 34.0218 81.0112 34.2629 81.0112 34.5807C81.0112 34.9532 81.2329 35.2162 81.5433 35.3258C81.7872 35.4135 82.0643 35.4354 82.4744 35.4354L83.7713 35.4682C85.1126 35.5011 85.9994 35.7203 86.5425 36.2791C86.6201 36.3558 86.6866 36.4325 86.742 36.5092V33.6821H82.3414C81.9091 33.6821 81.6098 33.704 81.377 33.8575Z" fill="white"/>
<path id="Vector_9" d="M83.4719 41.5608H78.7942V39.413H83.4497C83.9042 39.413 84.2257 39.3473 84.4252 39.172C84.5915 39.0186 84.7134 38.7994 84.7134 38.5145C84.7134 38.2187 84.5915 37.9885 84.4141 37.8461C84.2368 37.6927 83.9818 37.6269 83.5717 37.6269C81.3104 37.5612 78.4616 37.7036 78.4616 34.5149C78.4616 33.0795 79.3816 31.5344 81.9311 31.5344H86.753V29.562H82.2637C80.9224 29.562 79.9137 29.8688 79.2265 30.3619V29.562H72.6089C71.5558 29.562 70.2922 29.814 69.7047 30.3619V29.562H57.8551V30.3619C56.9129 29.7045 55.3278 29.562 54.574 29.562H46.7593V30.3619C46.0166 29.6497 44.3761 29.562 43.3674 29.562H34.6105L32.6041 31.7097L30.7419 29.562H17.6841V43.5441H30.5091L32.5598 41.3635L34.5107 43.5332L42.403 43.5441V40.2458H43.19C44.232 40.2458 45.4735 40.2239 46.5487 39.7637V43.5441H53.0887V39.8842H53.4101C53.8092 39.8842 53.8424 39.9171 53.8424 40.2897V43.5441H73.6287C74.8702 43.5441 76.2114 43.2264 76.943 42.6565V43.5441H83.217C84.5139 43.5441 85.7997 43.3578 86.7752 42.8976V40.3006C86.1433 41.1553 85.0349 41.5608 83.4719 41.5608ZM43.2787 38.2077H40.2637V41.5608H35.5416L32.5709 38.2625L29.4671 41.5717H19.8567V31.5344H29.6112L32.5819 34.8327L35.6746 31.5344H43.4339C45.3405 31.5344 47.502 32.0823 47.502 34.8546C47.4909 37.6269 45.3959 38.2077 43.2787 38.2077ZM57.8662 37.7584C58.2098 38.2406 58.2653 38.7008 58.2763 39.5774V41.5608H55.8377V40.2897C55.8377 39.698 55.8931 38.8213 55.4386 38.3501C55.0839 37.9885 54.563 37.9118 53.6762 37.9118H51.0713V41.5608H48.6437V31.5235H54.2304C55.4608 31.5235 56.3587 31.5673 57.1457 32.0166C57.9216 32.4658 58.3983 33.1233 58.3983 34.241C58.3983 35.8299 57.312 36.6517 56.6801 36.9037C57.2122 37.101 57.6667 37.4626 57.8662 37.7584ZM67.8314 33.6273H62.1671V35.4354H67.7094V37.5064H62.1671V39.4898H67.8424V41.5717H59.7506V31.5344H67.8424V33.6273H67.8314ZM73.9945 41.5608H69.2724V39.413H73.9723C74.4268 39.413 74.7482 39.3473 74.9478 39.172C75.114 39.0186 75.236 38.7994 75.236 38.5145C75.236 38.2187 75.114 37.9885 74.9367 37.8461C74.7593 37.6927 74.5044 37.6269 74.0942 37.6269C71.8329 37.5612 68.9842 37.7036 68.9842 34.5149C68.9842 33.0685 69.9042 31.5344 72.4537 31.5344H77.3088V33.6821H72.8638C72.4204 33.6821 72.1322 33.6931 71.8884 33.8465C71.6334 34.0109 71.5337 34.2519 71.5337 34.5697C71.5337 34.9423 71.7554 35.2053 72.0657 35.3148C72.3207 35.4025 72.5867 35.4244 72.9968 35.4244L74.2938 35.4573C75.635 35.4902 76.5218 35.7093 77.0649 36.2682C77.5416 36.7722 77.7965 37.353 77.7965 38.394C77.8076 40.5417 76.4553 41.5608 73.9945 41.5608Z" fill="white"/>
<path id="Vector_10" d="M55.217 33.7918C54.9288 33.6384 54.4854 33.6274 54.0642 33.6274H51.0713V35.8628H54.0309C54.4965 35.8628 54.8955 35.8519 55.217 35.6656C55.5273 35.4903 55.7158 35.1396 55.7158 34.7123C55.7047 34.2739 55.5163 33.9671 55.217 33.7918Z" fill="white"/>
</g>
</g>
</g>
</g>
<defs>
<linearGradient id="paint0_linear_1_111" x1="43.6413" y1="0.245605" x2="43.6413" y2="55.4202" gradientUnits="userSpaceOnUse">
<stop stop-color="#1B8ABA"/>
<stop offset="1" stop-color="#005D9C"/>
</linearGradient>
</defs>
</svg>
