<svg width="87" height="56" viewBox="0 0 87 56" fill="none" xmlns="http://www.w3.org/2000/svg">
<g id="ApplePay">
<rect id="Rectangle" x="0.532227" y="0.419922" width="86.2103" height="55.1746" rx="5.17262" fill="black"/>
<path id="Path" d="M22.8491 17.9952C22.0812 18.9066 20.8526 19.6254 19.624 19.5227C19.4704 18.2905 20.0719 16.9812 20.7758 16.1725C21.5437 15.2354 22.8875 14.5679 23.9754 14.5166C24.1034 15.8002 23.6042 17.0582 22.8491 17.9952ZM23.9626 19.7666C22.1836 19.6639 20.6606 20.7807 19.8159 20.7807C18.9585 20.7807 17.6658 19.818 16.258 19.8437C14.4279 19.8693 12.7257 20.9091 11.7914 22.5649C9.87167 25.8767 11.2923 30.7802 13.148 33.4758C14.0567 34.8107 15.1446 36.2741 16.578 36.2227C17.9346 36.1714 18.4721 35.337 20.1103 35.337C21.7613 35.337 22.2348 36.2227 23.6682 36.1971C25.1528 36.1714 26.0871 34.8621 26.9958 33.5271C28.0325 32.0124 28.4548 30.5363 28.4804 30.4592C28.4548 30.4336 25.6136 29.3425 25.588 26.0564C25.5624 23.3094 27.8277 22.0001 27.9301 21.9231C26.6502 20.0234 24.6537 19.818 23.9626 19.7666ZM34.2396 16.0441V36.0559H37.3368V29.2141H41.6243C45.5405 29.2141 48.2922 26.5185 48.2922 22.6163C48.2922 18.7141 45.5917 16.0441 41.7266 16.0441H34.2396ZM37.3368 18.6627H40.9076C43.5952 18.6627 45.131 20.1004 45.131 22.6291C45.131 25.1579 43.5952 26.6084 40.8948 26.6084H37.3368V18.6627ZM53.949 36.2099C55.8944 36.2099 57.6989 35.2215 58.518 33.6555H58.582V36.0559H61.4488V26.0949C61.4488 23.2068 59.1451 21.3455 55.6 21.3455C52.3108 21.3455 49.8792 23.2324 49.7896 25.8254H52.5796C52.81 24.5931 53.949 23.7844 55.5104 23.7844C57.4046 23.7844 58.4668 24.6701 58.4668 26.3003V27.4042L54.6017 27.6353C51.0054 27.8535 49.0601 29.3297 49.0601 31.8969C49.0601 34.4898 51.0694 36.2099 53.949 36.2099ZM54.7809 33.8352C53.1299 33.8352 52.0805 33.0393 52.0805 31.8199C52.0805 30.5619 53.0915 29.8303 55.0241 29.7147L58.4668 29.4965V30.6261C58.4668 32.5002 56.8798 33.8352 54.7809 33.8352ZM65.2755 41.4984C68.2959 41.4984 69.7165 40.3432 70.958 36.8389L76.3972 21.538H73.2489L69.6013 33.3602H69.5374L65.8898 21.538H62.6519L67.8992 36.1072L67.6176 36.9929C67.1441 38.4947 66.3762 39.0724 65.0068 39.0724C64.7636 39.0724 64.2901 39.0467 64.0981 39.021V41.4214C64.2773 41.4728 65.0452 41.4984 65.2755 41.4984Z" fill="white"/>
</g>
</svg>
