<svg width="87" height="56" viewBox="0 0 87 56" fill="none" xmlns="http://www.w3.org/2000/svg">
<g id="Bitcoin">
<rect id="Rectangle" x="0.551758" y="0.419922" width="86.2103" height="55.1746" rx="5.17262" fill="#F7931A"/>
<g id="Group">
<g id="Group_2">
<path id="Vector" d="M25.2615 39.0939C25.779 39.0939 26.2262 39.1866 26.6019 39.3687C26.9795 39.5526 27.291 39.8003 27.5409 40.1118C27.7874 40.4249 27.9709 40.7909 28.0893 41.2103C28.207 41.6309 28.266 42.0831 28.266 42.5671C28.266 43.3106 28.1298 44.013 27.8548 44.6752C27.5798 45.3383 27.2066 45.9135 26.732 46.4041C26.2577 46.8941 25.6977 47.2804 25.0519 47.5658C24.4071 47.8514 23.7061 47.9942 22.9534 47.9942C22.8561 47.9942 22.685 47.9914 22.4432 47.9864C22.2015 47.9814 21.9237 47.9565 21.6126 47.9144C21.2995 47.8707 20.9684 47.8061 20.6188 47.7196C20.2694 47.6346 19.9375 47.5155 19.625 47.3644L22.4195 35.6223L24.9225 35.2344L23.9219 39.4012C24.1361 39.3047 24.3519 39.2299 24.5673 39.1755C24.7829 39.1218 25.0142 39.0939 25.2615 39.0939ZM23.162 46.0086C23.539 46.0086 23.8942 45.9159 24.2278 45.7338C24.5625 45.5515 24.8513 45.3054 25.0932 44.9988C25.3351 44.6909 25.5266 44.3441 25.6662 43.9566C25.8058 43.5691 25.8764 43.1648 25.8764 42.7442C25.8764 42.2275 25.79 41.8244 25.6179 41.533C25.4458 41.2428 25.1273 41.0968 24.6648 41.0968C24.5132 41.0968 24.318 41.1258 24.0758 41.1774C23.8329 41.2323 23.6155 41.3461 23.4207 41.5175L22.3553 45.9426C22.4195 45.9539 22.4764 45.9647 22.5248 45.9749C22.5723 45.9859 22.6247 45.9936 22.677 45.999C22.7322 46.0052 22.7955 46.0084 22.8718 46.0084C22.9482 46.0084 23.0438 46.0086 23.162 46.0086Z" fill="white"/>
<path id="Vector_2" d="M30.8614 47.77H28.4707L30.4896 39.2745H32.8966L30.8614 47.77ZM32.0247 38.2394C31.691 38.2394 31.3885 38.1401 31.12 37.9411C30.8494 37.7432 30.7154 37.4387 30.7154 37.0283C30.7154 36.8025 30.7612 36.5907 30.8522 36.3909C30.9445 36.1914 31.0652 36.0197 31.2164 35.8737C31.3673 35.7289 31.5422 35.6133 31.7409 35.5261C31.9407 35.4403 32.1533 35.3975 32.3799 35.3975C32.7133 35.3975 33.0143 35.4968 33.2837 35.6958C33.5522 35.8959 33.6872 36.2004 33.6872 36.6086C33.6872 36.8352 33.6415 37.0478 33.5498 37.2472C33.4586 37.4467 33.338 37.6184 33.1868 37.7644C33.037 37.9094 32.8605 38.0247 32.6623 38.111C32.4622 38.1982 32.2504 38.2394 32.0247 38.2394Z" fill="white"/>
<path id="Vector_3" d="M34.9919 37.1579L37.4958 36.77L36.881 39.2742H39.5626L39.0784 41.2442H36.4129L35.7029 44.2158C35.6375 44.4635 35.6004 44.6949 35.59 44.9099C35.5783 45.1259 35.6056 45.3113 35.6702 45.4675C35.7344 45.6241 35.8499 45.7447 36.0174 45.8301C36.1841 45.9168 36.4229 45.9605 36.736 45.9605C36.9939 45.9605 37.2452 45.936 37.4881 45.8873C37.7296 45.8394 37.9743 45.7728 38.222 45.6857L38.4003 47.5277C38.0772 47.6462 37.7274 47.7481 37.3505 47.8338C36.9729 47.9208 36.526 47.9627 36.0094 47.9627C35.2667 47.9627 34.691 47.8524 34.2807 47.6328C33.8711 47.4116 33.5815 47.1095 33.4082 46.7269C33.2373 46.3458 33.1609 45.9065 33.1822 45.4115C33.2043 44.9153 33.2791 44.3937 33.4082 43.8445L34.9919 37.1579Z" fill="white"/>
<path id="Vector_4" d="M39.4575 44.3766C39.4575 43.6448 39.576 42.9548 39.8127 42.3088C40.0491 41.6622 40.3895 41.0968 40.8312 40.6116C41.2714 40.1288 41.8077 39.7462 42.4389 39.4654C43.0671 39.1862 43.7706 39.0454 44.5458 39.0454C45.031 39.0454 45.4644 39.0913 45.8457 39.1832C46.2286 39.276 46.5751 39.3958 46.8884 39.5462L46.0639 41.4209C45.8485 41.3336 45.6249 41.2566 45.3938 41.1868C45.1624 41.1156 44.88 41.0813 44.546 41.0813C43.748 41.0813 43.1172 41.3563 42.6477 41.9045C42.18 42.4532 41.9445 43.1917 41.9445 44.1181C41.9445 44.6672 42.063 45.1111 42.3007 45.4508C42.5372 45.7904 42.9742 45.9593 43.6086 45.9593C43.9217 45.9593 44.2239 45.9266 44.5133 45.8628C44.8048 45.7982 45.0623 45.7168 45.2891 45.6207L45.4676 47.5425C45.1652 47.6597 44.8318 47.7656 44.466 47.8584C44.0994 47.9479 43.6631 47.9944 43.1571 47.9944C42.4892 47.9944 41.9238 47.8967 41.4613 47.7042C40.9986 47.5087 40.6162 47.2493 40.3151 46.9206C40.0124 46.5911 39.795 46.2064 39.6605 45.7649C39.5261 45.3237 39.4575 44.8602 39.4575 44.3766Z" fill="white"/>
<path id="Vector_5" d="M50.0771 47.9944C49.5065 47.9944 49.0109 47.9074 48.5905 47.7353C48.1713 47.5632 47.824 47.3217 47.5494 47.0086C47.2744 46.697 47.0686 46.3279 46.9276 45.9025C46.7866 45.4773 46.7188 45.0064 46.7188 44.4905C46.7188 43.8433 46.8227 43.1963 47.0327 42.5511C47.2417 41.9045 47.5518 41.3236 47.9622 40.8072C48.3695 40.2901 48.8719 39.8673 49.4634 39.5376C50.0543 39.2101 50.734 39.0454 51.4975 39.0454C52.0577 39.0454 52.5507 39.1326 52.9769 39.3047C53.4011 39.4764 53.7505 39.7199 54.0267 40.0314C54.3 40.3445 54.5076 40.7121 54.6472 41.1381C54.7878 41.5625 54.8572 42.0346 54.8572 42.5509C54.8572 43.1961 54.7547 43.8431 54.5513 44.4903C54.3476 45.1342 54.0455 45.7166 53.6466 46.2341C53.2485 46.7505 52.7507 47.1731 52.1528 47.5014C51.5557 47.8296 50.8633 47.9944 50.0771 47.9944ZM51.2719 41.0815C50.9175 41.0815 50.6042 41.1844 50.3359 41.3876C50.0667 41.5932 49.8405 41.8517 49.6583 42.1634C49.474 42.4765 49.3374 42.818 49.245 43.1891C49.1535 43.5611 49.1086 43.9127 49.1086 44.2467C49.1086 44.7858 49.1956 45.2056 49.3665 45.5078C49.5398 45.8083 49.8511 45.9595 50.3036 45.9595C50.6592 45.9595 50.971 45.8574 51.2408 45.652C51.5084 45.448 51.7348 45.1893 51.9185 44.877C52.1016 44.5654 52.2394 44.223 52.3317 43.8513C52.4221 43.4805 52.4681 43.1269 52.4681 42.7934C52.4681 42.2558 52.3816 41.8349 52.2091 41.5332C52.0368 41.2326 51.724 41.0815 51.2719 41.0815Z" fill="white"/>
<path id="Vector_6" d="M57.4556 47.77H55.063L57.0819 39.2745H59.4901L57.4556 47.77ZM58.6172 38.2394C58.2837 38.2394 57.9814 38.1401 57.7133 37.9411C57.4441 37.7432 57.3089 37.4387 57.3089 37.0283C57.3089 36.8025 57.3553 36.5907 57.4465 36.3909C57.5376 36.1914 57.6591 36.0197 57.8102 35.8737C57.9604 35.7289 58.1369 35.6133 58.3352 35.5261C58.5338 35.4403 58.7464 35.3975 58.9722 35.3975C59.3064 35.3975 59.6084 35.4968 59.8772 35.6958C60.1463 35.8959 60.2821 36.2004 60.2821 36.6086C60.2821 36.8352 60.2338 37.0478 60.1435 37.2472C60.0531 37.4467 59.9317 37.6184 59.7811 37.7644C59.6295 37.9094 59.4552 38.0247 59.2566 38.111C59.0563 38.1982 58.8441 38.2394 58.6172 38.2394Z" fill="white"/>
<path id="Vector_7" d="M61.2201 39.6608C61.4016 39.6077 61.6043 39.5439 61.8246 39.4745C62.0458 39.4051 62.2929 39.3405 62.5689 39.2822C62.842 39.2222 63.1501 39.1735 63.4889 39.1359C63.8278 39.0974 64.2139 39.0786 64.6429 39.0786C65.9037 39.0786 66.7729 39.4458 67.2527 40.1779C67.7322 40.9101 67.8151 41.912 67.504 43.182L66.4043 47.7691H63.9979L65.0637 43.2786C65.1287 42.9982 65.1798 42.7271 65.2175 42.4623C65.2556 42.1998 65.2534 41.9685 65.2089 41.7682C65.1664 41.5704 65.0663 41.4084 64.9109 41.283C64.7532 41.1595 64.5148 41.0975 64.1916 41.0975C63.8798 41.0975 63.5627 41.131 63.239 41.1956L61.6721 47.7689H59.2646L61.2201 39.6608Z" fill="white"/>
</g>
<g id="Bitcoin_2">
<g id="Group_3">
<path id="Vector_8" d="M54.5225 22.0958C53.0263 28.0964 46.948 31.7483 40.946 30.2519C34.9465 28.7559 31.2942 22.6779 32.7911 16.6777C34.2866 10.6764 40.3649 7.02421 46.3651 8.52025C52.3668 10.0163 56.0187 16.0949 54.5225 22.0958Z" fill="white"/>
<path id="Vector_9" d="M48.5958 17.7902C48.8188 16.2998 47.6839 15.4986 46.132 14.9641L46.6354 12.9451L45.4063 12.6388L44.9162 14.6046C44.5931 14.5241 44.2612 14.4481 43.9315 14.3729L44.4251 12.3942L43.1967 12.0879L42.6929 14.1062C42.4255 14.0453 42.1629 13.9851 41.9081 13.9217L41.9095 13.9154L40.2144 13.4922L39.8874 14.8048C39.8874 14.8048 40.7994 15.0138 40.7801 15.0268C41.2779 15.151 41.3679 15.4804 41.3528 15.7415L40.7794 18.0416C40.8137 18.0503 40.8582 18.0629 40.9072 18.0825C40.8662 18.0724 40.8225 18.0612 40.7773 18.0503L39.9736 21.2724C39.9126 21.4236 39.7583 21.6504 39.4103 21.5643C39.4225 21.5821 38.5169 21.3413 38.5169 21.3413L37.9067 22.7481L39.5062 23.1468C39.8038 23.2213 40.0954 23.2994 40.3824 23.3729L39.8738 25.415L41.1015 25.7212L41.6052 23.7009C41.9406 23.7919 42.2662 23.8759 42.5847 23.955L42.0827 25.9659L43.3118 26.2722L43.8205 24.234C45.9164 24.6306 47.4924 24.4706 48.1558 22.5752C48.6904 21.049 48.1292 20.1687 47.0265 19.5947C47.8295 19.4095 48.4344 18.8813 48.5958 17.7902ZM45.7876 21.7277C45.4077 23.2539 42.8378 22.4289 42.0047 22.222L42.6796 19.5166C43.5128 19.7245 46.1845 20.1362 45.7876 21.7277ZM46.1677 17.7682C45.8212 19.1564 43.6822 18.4511 42.9884 18.2782L43.6003 15.8245C44.2941 15.9974 46.5287 16.3201 46.1677 17.7682Z" fill="#F7931A"/>
</g>
</g>
</g>
</g>
</svg>
