<svg width="87" height="56" viewBox="0 0 87 56" fill="none" xmlns="http://www.w3.org/2000/svg">
<g id="BitPay">
<rect id="Rectangle" x="0.547852" y="0.419922" width="86.2103" height="55.1746" rx="5.17262" fill="#2E408B"/>
<path id="Vector" d="M74.6886 22.1118H71.4943L69.6067 29.9827L69.3163 31.0759C69.0985 31.1488 68.9533 31.1488 68.7355 31.2217C68.4451 31.2946 68.1547 31.2946 67.7918 31.2946C67.3562 31.2946 67.0658 31.2217 66.7754 31.0759C66.5576 30.9302 66.3398 30.7844 66.2672 30.5658C66.1946 30.3471 66.122 30.0556 66.122 29.7641C66.122 29.4726 66.1946 29.1082 66.2672 28.8167L67.2836 24.7354L67.937 22.0389H64.67L63.1455 28.3794C62.9277 29.1811 62.8551 29.9099 62.8551 30.4929C62.8551 31.2217 62.9277 31.8047 63.1455 32.3149C63.3633 32.825 63.7989 33.2623 64.3796 33.5538C64.9604 33.8453 65.759 33.9911 66.7028 33.9911C67.4288 33.9911 68.0821 33.9182 68.5903 33.7724H68.6629C68.5177 34.4284 68.2273 34.9385 67.7192 35.3758C67.211 35.8131 66.5576 36.0317 65.6864 36.0317C65.3234 36.0317 64.8878 36.0317 64.5974 35.9588L63.9441 38.5825C64.3797 38.6553 64.8878 38.6553 65.396 38.6553C66.4124 38.6553 67.2836 38.5096 67.937 38.291C68.6629 38.0723 69.3163 37.7079 69.8971 37.2706C70.4053 36.8334 70.9135 36.2503 71.2765 35.5215C71.6395 34.7928 71.9298 33.9911 72.1476 33.1165L74.3256 23.7151L74.6886 22.1118ZM61.2579 28.8895C61.0401 29.6912 60.9675 30.5658 61.0401 31.3674C61.1127 32.242 61.4757 33.4081 61.7661 34.064H58.6444C58.2814 33.4081 58.2814 33.1165 58.2088 32.8979C57.7732 33.2623 57.3376 33.4809 56.8294 33.6996C56.3213 33.9182 55.8131 34.064 55.1597 34.064C54.4337 34.064 53.7803 33.9182 53.2721 33.6996C52.7639 33.4809 52.3284 33.1165 51.9654 32.6793C51.6024 32.242 51.3846 31.7318 51.2394 31.1488C51.0942 30.5658 51.0216 29.9827 51.0216 29.2539C51.0216 28.2336 51.2394 27.2862 51.5298 26.4845C51.8928 25.61 52.401 24.8083 53.0543 24.2253C53.7077 23.5694 55.1597 22.1118 57.7006 22.1118H62.7099L61.2579 28.8895ZM58.9348 24.8812C57.4102 24.8812 57.1198 24.8812 56.539 25.1727C56.1035 25.3913 55.7405 25.7557 55.3775 26.193C55.0871 26.5574 54.7967 27.0676 54.5789 27.5777C54.3611 28.0879 54.2885 28.6709 54.2885 29.2539C54.2885 29.9827 54.4337 30.4929 54.6515 30.9302C54.8693 31.3674 55.3049 31.5132 55.9583 31.5132C56.3213 31.5132 56.6116 31.4403 56.902 31.2946C57.1924 31.1488 57.4828 30.9302 57.7732 30.6386C57.7732 30.2742 57.8458 29.9099 57.9184 29.4726C57.991 29.0353 58.0636 28.6709 58.1362 28.3794L58.9348 24.8812ZM50.2956 26.8489C50.2956 27.9421 50.0778 28.8895 49.7874 29.7641C49.4244 30.6386 48.9162 31.4403 48.3355 32.0233C47.6821 32.6793 46.9561 33.1894 46.1575 33.5538C45.2863 33.9182 44.3426 34.1368 43.3988 34.1368C42.8906 34.1368 42.3824 34.064 41.8742 33.9911L40.8579 37.9266H37.6635L41.366 22.1847H45.6493C46.4479 22.1847 47.1739 22.3304 47.6821 22.5491C48.2629 22.7677 48.7711 23.1321 49.134 23.5694C49.497 24.0066 49.7874 24.5168 50.0052 25.0998C50.223 25.61 50.2956 26.193 50.2956 26.8489ZM42.3824 31.2946C42.6002 31.3674 42.9632 31.3674 43.3262 31.3674C43.907 31.3674 44.4152 31.2946 44.9234 31.0759C45.3589 30.8573 45.7945 30.5658 46.1575 30.2014C46.5205 29.837 46.7383 29.3268 46.9561 28.8167C47.1739 28.3065 47.2465 27.6506 47.2465 26.9947C47.2465 26.3388 47.1013 25.8286 46.8109 25.3913C46.5205 24.9541 46.0123 24.7354 45.3589 24.7354H44.0522L42.3824 31.2946ZM35.7034 31.2946C35.2678 31.2946 34.9774 31.2217 34.687 31.0759C34.4692 30.9302 34.2514 30.7844 34.1788 30.5658C34.1062 30.3471 34.0336 30.0556 34.0336 29.7641C34.0336 29.4726 34.1062 29.1082 34.1788 28.8167L35.1952 24.7354H38.8251L39.4785 22.0389H35.776L36.6472 18.6136L33.2351 19.1966L31.0571 28.4523C30.8393 29.2539 30.7667 29.9827 30.7667 30.5658C30.7667 31.2946 30.8393 31.8776 31.0571 32.3877C31.2749 32.8979 31.7105 33.3352 32.2913 33.6267C32.8721 33.9182 33.6706 34.064 34.6144 34.064C35.3404 34.064 35.9938 33.9911 36.502 33.8453C36.5746 33.8453 36.6472 33.8453 36.7198 33.7724L37.3731 31.003C37.1554 31.0759 36.9376 31.1488 36.7198 31.1488C36.3568 31.2946 36.0664 31.2946 35.7034 31.2946ZM27.4998 22.1118L24.6685 34.064H27.8628L30.6941 22.1118H27.4998ZM30.9845 20.7271L31.4927 18.6865H28.2984L27.7902 20.7271H30.9845ZM20.3852 22.1118C21.1112 22.1118 21.692 22.2575 22.2001 22.4762C22.7083 22.6948 23.1439 23.0592 23.5069 23.4965C23.8699 23.9338 24.0877 24.4439 24.2329 25.027C24.3781 25.61 24.4507 26.193 24.4507 26.8489C24.4507 27.8692 24.2329 28.8167 23.8699 29.6912C23.5069 30.5658 22.9987 31.3674 22.3453 32.0233C21.692 32.7521 20.966 33.1894 20.0948 33.6267C19.2236 33.9911 18.2798 34.2097 17.3361 34.2097H16.5375C16.1745 34.2097 15.8115 34.2097 15.3759 34.1368C14.9403 34.064 14.5047 33.9911 13.9966 33.8453C13.4884 33.6996 13.0528 33.5538 12.6172 33.3352L16.3923 17.5204L19.7318 17.0103L18.3524 22.6219C18.6428 22.4762 18.9332 22.4033 19.2236 22.3304C19.7318 22.1118 20.0222 22.1118 20.3852 22.1118ZM17.4813 31.4403C17.9894 31.4403 18.4976 31.2946 18.9332 31.0759C19.3688 30.8573 19.8044 30.4929 20.0948 30.0556C20.4578 29.6183 20.6756 29.1811 20.8934 28.6709C21.1112 28.1608 21.1838 27.5777 21.1838 26.9947C21.1838 26.2659 21.0386 25.7557 20.8208 25.3185C20.603 24.9541 20.0948 24.7354 19.4414 24.7354C19.2236 24.7354 19.0058 24.7354 18.7154 24.8083C18.3524 24.8812 18.1346 25.027 17.8443 25.2456L16.3923 31.2217C16.8279 31.2946 16.9731 31.2946 17.0457 31.2946C17.1909 31.4403 17.3361 31.4403 17.4813 31.4403Z" fill="white"/>
</g>
</svg>
