<svg width="87" height="56" viewBox="0 0 87 56" fill="none" xmlns="http://www.w3.org/2000/svg">
<g id="Discover">
<rect id="Rectangle" x="0.551758" y="0.45166" width="86.2103" height="55.1746" rx="5.17262" fill="#F8F8F8"/>
<g id="Mask Group">
<mask id="mask0_1_3" style="mask-type:alpha" maskUnits="userSpaceOnUse" x="0" y="0" width="87" height="56">
<rect id="Rectangle_2" x="0.551758" y="0.45166" width="86.2103" height="55.1746" rx="5.17262" fill="#F9F9F9"/>
</mask>
<g mask="url(#mask0_1_3)">
<path id="Vector" d="M25.4717 55.6263H83.933C85.4821 55.6263 86.7618 54.3466 86.7618 52.7975V32.9961C81.1716 36.5657 60.0231 48.8238 25.4717 55.6263Z" fill="#F58220"/>
</g>
</g>
<g id="Group">
<path id="Vector_2" d="M13.8656 22.8193H10.897V33.1872H13.8499C15.42 33.1872 16.5539 32.8168 17.5491 31.9903C18.7318 31.0117 19.4312 29.5364 19.4312 28.0104C19.4316 24.951 17.1454 22.8193 13.8656 22.8193ZM16.2281 30.6079C15.5926 31.1817 14.7674 31.4319 13.4607 31.4319H12.9181V24.5761H13.4607C14.7674 24.5761 15.5603 24.8098 16.2281 25.4145C16.9276 26.0372 17.3482 27.0024 17.3482 27.9953C17.3482 28.9909 16.9276 29.9855 16.2281 30.6079Z" fill="#231F20"/>
<path id="Vector_3" d="M22.3842 22.8193H20.3618V33.1872H22.3842V22.8193Z" fill="#231F20"/>
<path id="Vector_4" d="M27.3296 26.7974C26.1161 26.3485 25.7597 26.0523 25.7597 25.4922C25.7597 24.8389 26.3946 24.343 27.2662 24.343C27.8722 24.343 28.37 24.5919 28.8969 25.1826L29.9551 23.797C29.0855 23.0363 28.0451 22.6475 26.9085 22.6475C25.074 22.6475 23.6747 23.9214 23.6747 25.6182C23.6747 27.0467 24.3262 27.7779 26.2256 28.4613C27.0174 28.7405 27.4203 28.9265 27.6237 29.0517C28.0277 29.3155 28.2301 29.6892 28.2301 30.1244C28.2301 30.9645 27.5622 31.5868 26.6599 31.5868C25.6953 31.5868 24.9184 31.1044 24.4529 30.2041L23.1465 31.4622C24.0783 32.8299 25.1972 33.4361 26.7361 33.4361C28.8377 33.4361 30.3119 32.0388 30.3119 30.0318C30.3116 28.3845 29.6302 27.6387 27.3296 26.7974Z" fill="#231F20"/>
<path id="Vector_5" d="M30.9497 28.0104C30.9497 31.0578 33.3429 33.4208 36.4223 33.4208C37.293 33.4208 38.0385 33.2496 38.9579 32.8168V30.4362C38.1493 31.2454 37.4332 31.5716 36.5165 31.5716C34.4797 31.5716 33.0342 30.0949 33.0342 27.9953C33.0342 26.0048 34.5256 24.4343 36.4226 24.4343C37.3872 24.4343 38.1173 24.7786 38.9582 25.601V23.2214C38.0705 22.7709 37.3407 22.5845 36.4703 22.5845C33.4058 22.585 30.9497 24.996 30.9497 28.0104Z" fill="#231F20"/>
<path id="Vector_6" d="M54.9924 29.7834L52.2274 22.8193H50.0181L54.4183 33.4533H55.5064L59.9854 22.8193H57.7931L54.9924 29.7834Z" fill="#231F20"/>
<path id="Vector_7" d="M60.9004 33.1872H66.6358V31.4323H62.9211V28.6337H66.4988V26.8774H62.9211V24.5761H66.6358V22.8193H60.9004V33.1872Z" fill="#231F20"/>
<path id="Vector_8" d="M74.6425 25.8802C74.6425 23.9391 73.3054 22.8193 70.9732 22.8193H67.9746V33.1872H69.9945V29.0224H70.2583L73.0574 33.1874H75.5444L72.2807 28.8193C73.8037 28.5097 74.6425 27.4678 74.6425 25.8802ZM70.5854 27.5926H69.9947V24.4524H70.6173C71.8769 24.4524 72.5616 24.9802 72.5616 25.9892C72.5616 27.0316 71.877 27.5926 70.5854 27.5926Z" fill="#231F20"/>
<g id="MarkingBase 1">
<path id="Vector_9" d="M45.1336 33.5544C48.1797 33.5544 50.6491 31.085 50.6491 28.0389C50.6491 24.9928 48.1797 22.5234 45.1336 22.5234C42.0875 22.5234 39.6182 24.9928 39.6182 28.0389C39.6182 31.085 42.0875 33.5544 45.1336 33.5544Z" fill="url(#paint0_linear_1_3)"/>
<path id="Vector_10" opacity="0.65" d="M45.1336 33.5544C48.1797 33.5544 50.6491 31.085 50.6491 28.0389C50.6491 24.9928 48.1797 22.5234 45.1336 22.5234C42.0875 22.5234 39.6182 24.9928 39.6182 28.0389C39.6182 31.085 42.0875 33.5544 45.1336 33.5544Z" fill="url(#paint1_linear_1_3)"/>
</g>
<g id="Registered 1">
<path id="Vector_11" d="M75.9336 23.2089C75.9336 23.0271 75.8084 22.9277 75.5885 22.9277H75.2959V23.839H75.5133V23.4855L75.7683 23.839H76.0338L75.7341 23.4633C75.8629 23.4288 75.9336 23.3354 75.9336 23.2089ZM75.5502 23.3334H75.5135V23.0952H75.5526C75.66 23.0952 75.7162 23.1339 75.7162 23.2124C75.7162 23.2927 75.6594 23.3334 75.5502 23.3334Z" fill="#231F20"/>
<path id="Vector_12" d="M75.6326 22.5879C75.1901 22.5879 74.8389 22.9409 74.8389 23.3822C74.8389 23.8234 75.1941 24.1769 75.6326 24.1769C76.0636 24.1769 76.4168 23.8194 76.4168 23.3822C76.4168 22.9469 76.0634 22.5879 75.6326 22.5879ZM75.6291 24.0349C75.2808 24.0349 74.996 23.7451 74.996 23.3834C74.996 23.0206 75.2772 22.731 75.6291 22.731C75.9757 22.731 76.2582 23.0272 76.2582 23.3834C76.2582 23.7419 75.976 24.0349 75.6291 24.0349Z" fill="#231F20"/>
</g>
</g>
</g>
<defs>
<linearGradient id="paint0_linear_1_3" x1="47.9568" y1="32.4592" x2="44.1379" y2="26.4799" gradientUnits="userSpaceOnUse">
<stop stop-color="#F89F21"/>
<stop offset="0.2502" stop-color="#F79A23"/>
<stop offset="0.5331" stop-color="#F78E22"/>
<stop offset="0.6196" stop-color="#F68721"/>
<stop offset="0.7232" stop-color="#F48220"/>
<stop offset="1" stop-color="#F27623"/>
</linearGradient>
<linearGradient id="paint1_linear_1_3" x1="47.3536" y1="32.3779" x2="41.7722" y2="21.4687" gradientUnits="userSpaceOnUse">
<stop stop-color="#F68721" stop-opacity="0"/>
<stop offset="0.3587" stop-color="#E27027" stop-opacity="0.2704"/>
<stop offset="0.703" stop-color="#D4612C" stop-opacity="0.5299"/>
<stop offset="0.9816" stop-color="#D15D2D" stop-opacity="0.74"/>
</linearGradient>
</defs>
</svg>
