<svg width="87" height="56" viewBox="0 0 87 56" fill="none" xmlns="http://www.w3.org/2000/svg">
<g id="eBay">
<rect id="Rectangle" x="0.540039" y="0.45166" width="86.2103" height="55.1746" rx="5.17262" fill="black"/>
<g id="Group">
<path id="e" d="M19.3575 20.6401C14.7362 20.6401 10.8853 22.6007 10.8853 28.5157C10.8853 33.2017 13.4747 36.1526 19.4768 36.1526C26.5415 36.1526 26.9944 31.4989 26.9944 31.4989H23.5712C23.5712 31.4989 22.8372 34.0048 19.268 34.0048C16.3609 34.0048 14.27 32.0409 14.27 29.2884H27.3524V27.5611C27.3524 24.8379 25.6237 20.6401 19.3575 20.6401ZM19.2381 22.8477C22.0054 22.8477 23.8919 24.5429 23.8919 27.0838H14.3457C14.3457 24.3864 16.8081 22.8477 19.2381 22.8477Z" fill="#E53238"/>
<path id="b" d="M27.3504 14.9131V33.1828C27.3504 34.2198 27.2764 35.676 27.2764 35.676H30.5414C30.5414 35.676 30.6586 34.6302 30.6586 33.6744C30.6586 33.6744 32.2717 36.198 36.6579 36.198C41.2767 36.198 44.4141 32.9913 44.4141 28.397C44.4141 24.123 41.5323 20.6855 36.6653 20.6855C32.1078 20.6855 30.6915 23.1466 30.6915 23.1466V14.9131H27.3504ZM35.8226 22.9453C38.9592 22.9453 40.9537 25.2732 40.9537 28.397C40.9537 31.7468 38.6501 33.9383 35.845 33.9383C32.4973 33.9383 30.6915 31.3245 30.6915 28.4269C30.6915 25.7269 32.3119 22.9453 35.8226 22.9453Z" fill="#0064D2"/>
<path id="a" d="M52.5279 20.6401C45.5755 20.6401 45.1296 24.4469 45.1296 25.0552H48.5901C48.5901 25.0552 48.7716 22.8328 52.2892 22.8328C54.5751 22.8328 56.3463 23.879 56.3463 25.8905V26.6065H52.2892C46.9031 26.6065 44.0557 28.1821 44.0557 31.3796C44.0557 34.5263 46.6866 36.2384 50.242 36.2384C55.0875 36.2384 56.6484 33.561 56.6484 33.561C56.6484 34.6259 56.7305 35.6753 56.7305 35.6753H59.8068C59.8068 35.6753 59.6875 34.3746 59.6875 33.5424V26.3492C59.6875 21.6327 55.8832 20.6401 52.5279 20.6401ZM56.3463 28.7544V29.709C56.3463 30.9541 55.578 34.0495 51.0549 34.0495C48.5781 34.0495 47.5161 32.8134 47.5161 31.3796C47.5161 28.7712 51.0924 28.7544 56.3463 28.7544Z" fill="#F5AF02"/>
<path id="y" d="M57.8237 21.2383H61.7168L67.3038 32.4316L72.8781 21.2383H76.4046L66.2512 41.1659H62.5521L65.482 35.6108L57.8237 21.2383Z" fill="#86B817"/>
</g>
</g>
</svg>
