<svg width="87" height="56" viewBox="0 0 87 56" fill="none" xmlns="http://www.w3.org/2000/svg">
<g id="Google Pay">
<rect id="Rectangle" x="0.543945" y="0.45166" width="86.2103" height="55.1746" rx="5.17262" fill="#5485EC"/>
<g id="Group">
<path id="Vector" d="M41.876 29.4649V37.0914H39.4565V18.2574H45.8733C46.6393 18.2414 47.4008 18.3772 48.1139 18.6571C48.8271 18.9369 49.4778 19.3552 50.0284 19.8879C50.5847 20.3882 51.0273 21.0017 51.3267 21.6873C51.6261 22.3729 51.7752 23.1146 51.7641 23.8627C51.7801 24.6147 51.6332 25.3613 51.3336 26.0512C51.034 26.7412 50.5888 27.3582 50.0284 27.86C48.9064 28.93 47.5213 29.4644 45.8733 29.4634H41.876V29.4649ZM41.876 20.5761V27.1507H45.9334C46.3782 27.1639 46.8209 27.0841 47.2331 26.9164C47.6453 26.7487 48.018 26.4969 48.3273 26.1769C48.635 25.8778 48.8796 25.52 49.0466 25.1247C49.2136 24.7293 49.2997 24.3046 49.2997 23.8754C49.2997 23.4463 49.2136 23.0215 49.0466 22.6262C48.8796 22.2309 48.635 21.8731 48.3273 21.574C48.0219 21.2473 47.6505 20.9892 47.2378 20.8169C46.8251 20.6447 46.3805 20.5621 45.9334 20.5746H41.876V20.5761Z" fill="white"/>
<path id="Vector_2" d="M57.3389 23.7849C59.1272 23.7849 60.5388 24.2628 61.5737 25.2185C62.6086 26.1743 63.1256 27.4847 63.1246 29.1498V37.0918H60.8103V35.3036H60.7051C59.7033 36.7763 58.3708 37.5126 56.7078 37.5126C55.2882 37.5126 54.1005 37.0918 53.1447 36.2503C52.6861 35.864 52.3194 35.3803 52.0714 34.8344C51.8233 34.2884 51.7003 33.694 51.7111 33.0945C51.7111 31.7611 52.215 30.7006 53.2229 29.9132C54.2307 29.1257 55.5762 28.731 57.2593 28.729C58.6959 28.729 59.8791 28.992 60.8088 29.5179V28.9649C60.8115 28.5562 60.7233 28.152 60.5504 27.7816C60.3776 27.4112 60.1245 27.0839 59.8095 26.8235C59.1697 26.2462 58.3358 25.9313 57.4742 25.9414C56.1227 25.9414 55.0532 26.5114 54.2658 27.6515L52.1349 26.3095C53.307 24.6265 55.0417 23.7849 57.3389 23.7849ZM54.2087 33.1471C54.2071 33.455 54.2791 33.7589 54.4186 34.0333C54.5582 34.3078 54.7614 34.5449 55.0112 34.725C55.5463 35.1459 56.2104 35.3689 56.8911 35.3562C57.9121 35.3544 58.8907 34.9481 59.6126 34.2261C60.4141 33.4717 60.8148 32.5866 60.8148 31.5707C60.0604 30.9696 59.0085 30.669 57.659 30.669C56.6762 30.669 55.8567 30.906 55.2005 31.3799C54.5378 31.8607 54.2087 32.4453 54.2087 33.1471Z" fill="white"/>
<path id="Vector_3" d="M76.4087 24.2058L68.3299 42.7724H65.8323L68.8303 36.276L63.5181 24.2058H66.1479L69.9874 33.4628H70.04L73.7744 24.2058H76.4087Z" fill="white"/>
<g id="Group_2">
<path id="Vector_4" d="M32.0986 27.8211C32.0995 27.0838 32.0371 26.3478 31.9122 25.6211H21.7085V29.7882H27.5527C27.4331 30.4538 27.18 31.0882 26.8086 31.6533C26.4372 32.2184 25.9553 32.7025 25.3918 33.0763V35.7812H28.8797C30.9219 33.8983 32.0986 31.1137 32.0986 27.8211Z" fill="white"/>
<path id="Vector_5" d="M21.7083 38.3943C24.6281 38.3943 27.0866 37.4356 28.8794 35.7825L25.3915 33.0776C24.4207 33.7358 23.1704 34.1115 21.7083 34.1115C18.8861 34.1115 16.4907 32.209 15.6341 29.6453H12.041V32.4329C12.9416 34.2249 14.3225 35.7313 16.0295 36.784C17.7366 37.8367 19.7027 38.3942 21.7083 38.3943Z" fill="white"/>
<path id="Vector_6" d="M15.6344 29.6458C15.1815 28.3024 15.1815 26.8476 15.6344 25.5042V22.7166H12.0413C11.2837 24.2241 10.8892 25.8878 10.8892 27.575C10.8892 29.2621 11.2837 30.9259 12.0413 32.4334L15.6344 29.6458Z" fill="white"/>
<path id="Vector_7" d="M21.7087 21.0377C23.2518 21.0125 24.7427 21.5955 25.8594 22.6607L28.9475 19.5725C26.9893 17.7333 24.3951 16.7235 21.7087 16.7549C19.7032 16.755 17.7371 17.3125 16.03 18.3652C14.323 19.4179 12.9421 20.9243 12.0415 22.7163L15.6346 25.5039C16.4912 22.9402 18.8866 21.0377 21.7087 21.0377Z" fill="white"/>
</g>
</g>
</g>
</svg>
