<svg width="87" height="56" viewBox="0 0 87 56" fill="none" xmlns="http://www.w3.org/2000/svg">
<g id="MasterCard">
<rect id="Rectangle" x="0.532227" y="0.45166" width="86.2103" height="55.1746" rx="5.17262" fill="#0F3560"/>
<g id="Group">
<g id="Group_2">
<path id="Vector" d="M51.1606 41.5989H36.0752V14.4878H51.1606V41.5989Z" fill="#FF5F00"/>
<g id="Group_3">
<path id="Vector_2" d="M37.0415 28.0416C37.0415 22.542 39.6164 17.6431 43.6263 14.4861C40.694 12.1775 36.9932 10.7996 32.9713 10.7996C23.4498 10.7996 15.7314 18.519 15.7314 28.0416C15.7314 37.5643 23.4498 45.2837 32.9713 45.2837C36.9932 45.2837 40.694 43.9058 43.6263 41.5972C39.6164 38.4401 37.0415 33.5412 37.0415 28.0416Z" fill="#EB001B"/>
</g>
<g id="Group_4">
<path id="Vector_3" d="M71.5058 28.0416C71.5058 37.5643 63.7875 45.2837 54.266 45.2837C50.244 45.2837 46.5433 43.9058 43.6099 41.5972C47.6208 38.4401 50.1958 33.5412 50.1958 28.0416C50.1958 22.542 47.6208 17.6431 43.6099 14.4861C46.5433 12.1775 50.244 10.7996 54.266 10.7996C63.7875 10.7996 71.5058 18.519 71.5058 28.0416Z" fill="#F79E1B"/>
</g>
</g>
<g id="Group_5">
<path id="Vector_4" d="M28.7044 28.1502C28.7044 27.3971 29.1979 26.7784 30.0044 26.7784C30.775 26.7784 31.2952 27.3704 31.2952 28.1502C31.2952 28.93 30.775 29.5221 30.0044 29.5221C29.1979 29.5221 28.7044 28.9034 28.7044 28.1502ZM32.1735 28.1502V26.0078H31.2418V26.528C30.9463 26.1422 30.4979 25.9001 29.8884 25.9001C28.6869 25.9001 27.745 26.842 27.745 28.1502C27.745 29.4595 28.6869 30.4004 29.8884 30.4004C30.4979 30.4004 30.9463 30.1582 31.2418 29.7724V30.2927H32.1735V28.1502ZM63.6571 28.1502C63.6571 27.3971 64.1507 26.7784 64.9571 26.7784C65.7287 26.7784 66.2479 27.3704 66.2479 28.1502C66.2479 28.93 65.7287 29.5221 64.9571 29.5221C64.1507 29.5221 63.6571 28.9034 63.6571 28.1502ZM67.1272 28.1502V24.2871H66.1946V26.528C65.8991 26.1422 65.4507 25.9001 64.8412 25.9001C63.6397 25.9001 62.6977 26.842 62.6977 28.1502C62.6977 29.4595 63.6397 30.4004 64.8412 30.4004C65.4507 30.4004 65.8991 30.1582 66.1946 29.7724V30.2927H67.1272V28.1502ZM43.7382 26.7343C44.3385 26.7343 44.7243 27.1108 44.8228 27.7737H42.5993C42.6988 27.155 43.0743 26.7343 43.7382 26.7343ZM43.7567 25.9001C42.5008 25.9001 41.6225 26.8143 41.6225 28.1502C41.6225 29.5128 42.5367 30.4004 43.8193 30.4004C44.4647 30.4004 45.0557 30.2393 45.5759 29.8001L45.1193 29.1096C44.7602 29.3959 44.3025 29.558 43.8726 29.558C43.2724 29.558 42.7255 29.2799 42.5911 28.5083H45.7729C45.7821 28.3924 45.7914 28.2754 45.7914 28.1502C45.7821 26.8143 44.9572 25.9001 43.7567 25.9001ZM55.0064 28.1502C55.0064 27.3971 55.4999 26.7784 56.3064 26.7784C57.077 26.7784 57.5972 27.3704 57.5972 28.1502C57.5972 28.93 57.077 29.5221 56.3064 29.5221C55.4999 29.5221 55.0064 28.9034 55.0064 28.1502ZM58.4755 28.1502V26.0078H57.5438V26.528C57.2473 26.1422 56.8 25.9001 56.1905 25.9001C54.989 25.9001 54.047 26.842 54.047 28.1502C54.047 29.4595 54.989 30.4004 56.1905 30.4004C56.8 30.4004 57.2473 30.1582 57.5438 29.7724V30.2927H58.4755V28.1502ZM49.7448 28.1502C49.7448 29.4503 50.6498 30.4004 52.0308 30.4004C52.6762 30.4004 53.1061 30.2567 53.572 29.8894L53.1246 29.1363C52.7747 29.3877 52.4074 29.5221 52.0031 29.5221C51.2592 29.5128 50.7123 28.9752 50.7123 28.1502C50.7123 27.3253 51.2592 26.7876 52.0031 26.7784C52.4074 26.7784 52.7747 26.9128 53.1246 27.1642L53.572 26.4111C53.1061 26.0437 52.6762 25.9001 52.0308 25.9001C50.6498 25.9001 49.7448 26.8502 49.7448 28.1502ZM61.7569 25.9001C61.2192 25.9001 60.8693 26.1515 60.6272 26.528V26.0078H59.7037V30.2927H60.6364V27.8906C60.6364 27.1816 60.9411 26.7876 61.5506 26.7876C61.7394 26.7876 61.9364 26.8143 62.1334 26.8954L62.4207 26.0171C62.2145 25.936 61.9456 25.9001 61.7569 25.9001ZM36.7815 26.3485C36.3331 26.053 35.7154 25.9001 35.0341 25.9001C33.9486 25.9001 33.2498 26.4203 33.2498 27.2719C33.2498 27.9707 33.77 28.4016 34.7284 28.536L35.1686 28.5986C35.6795 28.6705 35.9207 28.8049 35.9207 29.047C35.9207 29.3784 35.58 29.5672 34.9439 29.5672C34.2985 29.5672 33.8326 29.361 33.5186 29.1188L33.0795 29.8443C33.5905 30.2208 34.2359 30.4004 34.9346 30.4004C36.172 30.4004 36.8893 29.8176 36.8893 29.0019C36.8893 28.2487 36.3249 27.8547 35.3922 27.7203L34.9531 27.6567C34.5498 27.6034 34.2266 27.5233 34.2266 27.236C34.2266 26.922 34.5314 26.7343 35.0423 26.7343C35.5892 26.7343 36.1187 26.9405 36.3783 27.1016L36.7815 26.3485ZM48.8028 25.9001C48.2652 25.9001 47.9153 26.1515 47.6742 26.528V26.0078H46.7507V30.2927H47.6824V27.8906C47.6824 27.1816 47.9871 26.7876 48.5966 26.7876C48.7854 26.7876 48.9824 26.8143 49.1794 26.8954L49.4667 26.0171C49.2605 25.936 48.9916 25.9001 48.8028 25.9001ZM40.8519 26.0078H39.3282V24.7078H38.3863V26.0078H37.5172V26.8595H38.3863V28.8141C38.3863 29.8084 38.7721 30.4004 39.8741 30.4004C40.2783 30.4004 40.7442 30.2752 41.0397 30.069L40.7708 29.2707C40.4928 29.4318 40.188 29.5128 39.9459 29.5128C39.4801 29.5128 39.3282 29.2256 39.3282 28.7956V26.8595H40.8519V26.0078ZM26.9211 30.2927V27.6034C26.9211 26.5906 26.2757 25.9093 25.2353 25.9001C24.6884 25.8909 24.124 26.0612 23.729 26.6625C23.4335 26.1874 22.9677 25.9001 22.313 25.9001C21.8554 25.9001 21.4081 26.0345 21.0582 26.5362V26.0078H20.1255V30.2927H21.0664V27.9173C21.0664 27.1734 21.4789 26.7784 22.116 26.7784C22.7348 26.7784 23.0477 27.1816 23.0477 27.9081V30.2927H23.9896V27.9173C23.9896 27.1734 24.4195 26.7784 25.0383 26.7784C25.6744 26.7784 25.9792 27.1816 25.9792 27.9081V30.2927H26.9211Z" fill="white"/>
</g>
</g>
</g>
</svg>
