<svg width="87" height="56" viewBox="0 0 87 56" fill="none" xmlns="http://www.w3.org/2000/svg">
<g id="monobank">
<rect id="Rectangle" x="0.547852" y="0.45166" width="86.2103" height="55.1746" rx="5.17262" fill="black"/>
<g id="Group">
<path id="Vector" fill-rule="evenodd" clip-rule="evenodd" d="M71.9275 31.8033H73.1835V35.7983H73.2545L74.8878 33.8793L76.0462 33.8762L74.2545 35.9738L76.4129 38.597H74.9662L73.2016 36.1554H73.1835V38.597H71.9275V31.8033ZM12.219 32.1072V35.8325C12.219 37.1016 12.5948 37.7952 13.6476 37.7952C14.6551 37.7952 15.058 36.9542 15.058 35.9059V32.1072H16.2451V36.1378C16.2451 37.7766 15.1717 38.7052 13.6103 38.7052C11.8226 38.7052 10.8931 37.8415 10.8931 36.0729V32.1072H12.219ZM19.0197 34.507C19.4448 34.0629 20.0363 33.8496 20.6299 33.8496C21.7305 33.8496 22.3129 34.4411 22.3129 35.6086V38.593H21.064V35.749C21.064 35.0996 20.7727 34.673 20.1223 34.673C19.5107 34.673 19.0303 35.0719 19.0303 35.8325V38.593H17.7798V33.9597H19.0197V34.507ZM23.7827 38.593H25.0337V33.9597H23.7827V38.593ZM23.66 32.5704C23.66 32.2188 23.9603 31.8567 24.3854 31.8567C24.8179 31.8567 25.155 32.2093 25.155 32.5704C25.155 32.9683 24.8652 33.3486 24.4035 33.3486C23.9608 33.3486 23.66 32.9683 23.66 32.5704ZM27.8013 38.593L25.7993 33.9401H27.1248C27.5302 35.006 27.9507 36.0085 28.3451 37.2962H28.3642C28.7892 36.0085 29.1891 35.006 29.6212 33.9401H30.7947L28.675 38.593H27.8013ZM34.517 35.7213C34.5658 35.0151 34.3113 34.5347 33.6921 34.5347C32.9743 34.5347 32.6524 35.0996 32.6659 35.7213H34.517ZM32.6453 36.3883C32.6171 37.26 33.2379 37.9074 34.0185 37.9074C34.4823 37.9074 34.9692 37.7499 35.2811 37.5362L35.6382 38.1856C34.9984 38.5558 34.3294 38.7052 33.7937 38.7052C32.3727 38.7052 31.3103 37.7127 31.3103 36.1841C31.3103 34.7565 32.3626 33.8496 33.7087 33.8496C35.1765 33.8496 35.7886 35.007 35.6961 36.3883H32.6453ZM38.1513 34.7751H38.1689L38.4234 34.414C38.5632 34.2092 38.8459 33.8496 39.2317 33.8496C39.5139 33.8496 39.8162 33.998 40.0798 34.2656L39.608 35.1182C39.4013 35.0151 39.269 34.9607 39.0165 34.9607C38.5834 34.9607 38.1603 35.3038 38.1603 36.3038V38.593H36.9053V33.9597H38.1513V34.7751ZM43.4193 34.8305C43.1376 34.6267 42.8459 34.5347 42.6185 34.5347C42.3368 34.5347 42.0542 34.6916 42.0542 35.007C42.0542 35.3777 42.5069 35.5915 43.033 35.9698C43.703 36.4632 43.8987 36.9446 43.8987 37.3687C43.8987 38.0196 43.1733 38.7052 42.1402 38.7052C41.4903 38.7052 41.0109 38.4818 40.5698 38.1765L40.9646 37.5362C41.2453 37.76 41.6492 37.9808 41.9872 37.9808C42.3474 37.9808 42.6658 37.7952 42.6658 37.4064C42.6658 36.9708 42.1759 36.7303 41.7257 36.415C41.189 36.0543 40.8233 35.7017 40.8233 35.1282C40.8233 34.3949 41.5366 33.8496 42.4581 33.8496C42.9777 33.8496 43.4842 33.9784 43.8253 34.2761L43.4193 34.8305ZM46.9837 36.1282C46.373 36.3229 46.0627 36.6655 46.0627 37.1931C46.0627 37.6016 46.3262 37.8797 46.6295 37.8797C47.126 37.8797 47.7759 37.2676 47.6828 35.9059L46.9837 36.1282ZM47.381 38.1488C47.0415 38.427 46.6089 38.7052 46.1773 38.7052C45.4429 38.7052 44.8293 38.1488 44.8293 37.2962C44.8293 36.415 45.4802 35.9245 46.5722 35.6086L47.6828 35.2842C47.6175 34.8586 47.2301 34.5905 46.8277 34.5905C46.2895 34.5905 45.9128 34.7852 45.5838 35.0634L45.1779 34.4794C45.7629 34.007 46.3353 33.8496 46.9837 33.8496C47.8514 33.8496 48.9152 34.1257 48.9152 35.5729V37.4622C48.9152 37.8334 48.961 38.2701 49.1129 38.593H47.7865C47.6899 38.435 47.6632 38.1674 47.6632 37.9169L47.381 38.1488ZM50.3171 38.593H51.5696V31.7827H50.3171V38.593ZM62.6525 36.1282C62.0398 36.3229 61.7295 36.6655 61.7295 37.1931C61.7295 37.6016 61.9915 37.8797 62.2943 37.8797C62.7908 37.8797 63.4412 37.2676 63.3497 35.9059L62.6525 36.1282ZM63.0448 38.1488C62.7078 38.427 62.2742 38.7052 61.8411 38.7052C61.1082 38.7052 60.4951 38.1488 60.4951 37.2962C60.4951 36.415 61.145 35.9245 62.238 35.6086L63.3497 35.2842C63.2808 34.8586 62.8969 34.5905 62.4895 34.5905C61.9548 34.5905 61.5775 34.7852 61.2486 35.0634L60.8437 34.4794C61.4271 34.007 62.0021 33.8496 62.6525 33.8496C63.5162 33.8496 64.5785 34.1257 64.5785 35.5729V37.4622C64.5785 37.8334 64.6253 38.2701 64.7752 38.593H63.4508C63.3577 38.435 63.3265 38.1674 63.3265 37.9169L63.0448 38.1488ZM67.2234 34.507C67.6474 34.0629 68.241 33.8496 68.833 33.8496C69.9336 33.8496 70.5166 34.4411 70.5166 35.6086V38.593H69.2656V35.749C69.2656 35.0996 68.9738 34.673 68.3245 34.673C67.7123 34.673 67.2329 35.0719 67.2329 35.8325V38.593H65.9819V33.9597H67.2234V34.507ZM56.1345 37.8128H56.8115C57.5459 37.8128 58.1027 37.4335 58.1027 36.7117C58.1027 35.9512 57.5283 35.6272 56.804 35.6272H56.1345V37.8128ZM56.1345 34.8305H56.5505C57.3135 34.8305 57.8316 34.3491 57.8316 33.7455C57.8316 33.172 57.3965 32.9225 56.8231 32.9225H56.134V34.8305H56.1345ZM54.809 38.6106V32.1248H57.1903C58.2994 32.1248 59.0816 32.6248 59.0816 33.505C59.0816 34.5422 58.2255 34.9698 57.7647 35.0895V35.1081C58.5836 35.1459 59.4951 35.7007 59.4951 36.6921C59.4951 37.8128 58.5439 38.6106 56.9936 38.6106H54.809Z" fill="white"/>
<path id="Vector_2" fill-rule="evenodd" clip-rule="evenodd" d="M76.4131 28.4243L76.4131 28.9273L10.8933 28.9273L10.8933 28.4243L76.4131 28.4243Z" fill="white"/>
<path id="Vector_3" fill-rule="evenodd" clip-rule="evenodd" d="M23.7038 25.4243V21.2111C23.7038 20.0159 23.064 19.4485 21.9895 19.4485C21.0962 19.4485 20.3236 19.9797 19.9855 20.5109C19.7682 19.8469 19.225 19.4485 18.3678 19.4485C17.4745 19.4485 16.7019 20.0038 16.4604 20.3539V19.5934H14.9272V25.4243H16.4604V21.5008C16.6898 21.1748 17.1365 20.8127 17.6677 20.8127C18.2954 20.8127 18.5369 21.199 18.5369 21.7422V25.4243H20.0821V21.4887C20.2994 21.1748 20.7461 20.8127 21.2893 20.8127C21.9171 20.8127 22.1585 21.199 22.1585 21.7422V25.4243H23.7038ZM27.917 25.5692C25.9975 25.5692 24.8386 24.1688 24.8386 22.5028C24.8386 20.8489 25.9975 19.4485 27.917 19.4485C29.8486 19.4485 31.0075 20.8489 31.0075 22.5028C31.0075 24.1688 29.8486 25.5692 27.917 25.5692ZM27.917 24.205C28.8707 24.205 29.414 23.4203 29.414 22.5028C29.414 21.5974 28.8707 20.8127 27.917 20.8127C26.9633 20.8127 26.4321 21.5974 26.4321 22.5028C26.4321 23.4203 26.9633 24.205 27.917 24.205ZM37.6111 25.4243V21.3076C37.6111 20.1728 36.9954 19.4485 35.7157 19.4485C34.762 19.4485 34.0497 19.9073 33.6755 20.3539V19.5934H32.1423V25.4243H33.6755V21.5008C33.929 21.1507 34.3998 20.8127 35.0035 20.8127C35.6554 20.8127 36.0779 21.0903 36.0779 21.8992V25.4243H37.6111ZM41.8364 25.5692C39.9169 25.5692 38.7579 24.1688 38.7579 22.5028C38.7579 20.8489 39.9169 19.4485 41.8364 19.4485C43.7679 19.4485 44.9269 20.8489 44.9269 22.5028C44.9269 24.1688 43.7679 25.5692 41.8364 25.5692ZM41.8364 24.205C42.7901 24.205 43.3333 23.4203 43.3333 22.5028C43.3333 21.5974 42.7901 20.8127 41.8364 20.8127C40.8827 20.8127 40.3515 21.5974 40.3515 22.5028C40.3515 23.4203 40.8827 24.205 41.8364 24.205ZM47.5948 23.5531C47.8484 23.9273 48.4158 24.205 48.9107 24.205C49.8041 24.205 50.3956 23.5289 50.3956 22.5149C50.3956 21.5008 49.8041 20.8127 48.9107 20.8127C48.4158 20.8127 47.8484 21.1024 47.5948 21.4887V23.5531ZM47.5948 25.4243H46.0617V17.3721H47.5948V20.3419C48.0536 19.7503 48.7055 19.4485 49.3936 19.4485C50.8785 19.4485 51.9771 20.6074 51.9771 22.5149C51.9771 24.4585 50.8664 25.5692 49.3936 25.5692C48.6934 25.5692 48.0536 25.2553 47.5948 24.6758V25.4243ZM58.1702 25.4243H56.637V24.8207C56.2386 25.2915 55.5505 25.5692 54.7899 25.5692C53.8604 25.5692 52.7618 24.9414 52.7618 23.6376C52.7618 22.2734 53.8604 21.7543 54.7899 21.7543C55.5626 21.7543 56.2507 22.0078 56.637 22.4666V21.6819C56.637 21.0903 56.13 20.704 55.3573 20.704C54.7296 20.704 54.1501 20.9334 53.6551 21.3921L53.0757 20.366C53.7879 19.7382 54.7054 19.4485 55.6229 19.4485C56.9509 19.4485 58.1702 19.9797 58.1702 21.6577V25.4243ZM55.4056 24.5309C55.9006 24.5309 56.3835 24.3619 56.637 24.0239V23.2996C56.3835 22.9615 55.9006 22.7925 55.4056 22.7925C54.802 22.7925 54.307 23.1064 54.307 23.6738C54.307 24.2171 54.802 24.5309 55.4056 24.5309ZM65.16 25.4243V21.3076C65.16 20.1728 64.5443 19.4485 63.2647 19.4485C62.311 19.4485 61.5987 19.9073 61.2245 20.3539V19.5934H59.6913V25.4243H61.2245V21.5008C61.478 21.1507 61.9488 20.8127 62.5524 20.8127C63.2043 20.8127 63.6268 21.0903 63.6268 21.8992V25.4243H65.16ZM72.3792 25.4243L70.001 22.2372L72.3068 19.5934H70.4235L68.2143 22.1889V17.3721H66.6811V25.4243H68.2143V23.9273L68.9145 23.1788L70.4598 25.4243H72.3792Z" fill="white"/>
</g>
</g>
</svg>
