<svg width="87" height="56" viewBox="0 0 87 56" fill="none" xmlns="http://www.w3.org/2000/svg">
<g id="Payoneer">
<rect id="Rectangle" x="0.55957" y="0.45166" width="86.2103" height="55.1746" rx="5.17262" fill="black"/>
<g id="Group">
<g id="Group_2">
<g id="g2670">
<path id="path2672" d="M15.6796 28.5153C15.9934 28.5805 16.2753 28.6125 16.689 28.6125C18.3094 28.6125 19.4013 27.5856 19.4013 26.2815C19.4013 25.1083 18.558 24.6851 17.467 24.6851C16.9862 24.6851 16.6224 24.718 16.391 24.7823L15.6796 28.5153ZM14.7697 23.4299C15.4482 23.2662 16.4576 23.1691 17.4499 23.1691C18.4927 23.1691 19.5845 23.3802 20.3121 23.9515C20.9573 24.4403 21.3377 25.1563 21.3377 26.1356C21.3377 27.4388 20.7087 28.4993 19.9145 29.1181C19.0217 29.8189 17.7467 30.1613 16.4234 30.1613C16.0259 30.1613 15.6796 30.1117 15.3816 30.0797L14.5707 34.2363H12.6855L14.7697 23.4299Z" fill="white"/>
</g>
<g id="g2674">
<path id="path2676" d="M26.4488 27.6662C26.2507 27.6166 26.0031 27.5851 25.6555 27.5851C23.8852 27.5851 22.4953 29.558 22.4953 31.3673C22.4953 32.1972 22.8096 32.8825 23.6537 32.8825C24.5628 32.8825 25.6555 31.7749 26.0359 29.7532L26.4488 27.6662ZM25.6717 34.2358C25.6717 33.7621 25.7374 33.1273 25.8045 32.458H25.7712C24.9774 33.9098 23.9014 34.4146 22.8757 34.4146C21.4368 34.4146 20.4927 33.3061 20.4927 31.7093C20.4927 29.0036 22.412 26.1182 26.1679 26.1182C27.0445 26.1182 27.9877 26.281 28.6167 26.4766L27.7729 30.6168C27.5406 31.79 27.4087 33.2901 27.442 34.2358H25.6717Z" fill="white"/>
</g>
<g id="g2678">
<path id="path2680" d="M39.5657 31.0901C39.5657 32.1808 40.1447 32.949 41.1375 32.949C42.5769 32.949 43.5368 30.992 43.5368 29.4112C43.5368 28.5955 43.1554 27.5851 41.9983 27.5851C40.4594 27.5851 39.5657 29.6068 39.5657 31.0901ZM45.5218 29.3956C45.5218 32.1005 43.6187 34.4146 40.8732 34.4146C38.8372 34.4146 37.5811 33.0293 37.5811 31.138C37.5811 28.4495 39.4833 26.1186 42.2297 26.1186C44.3967 26.1186 45.5218 27.6507 45.5218 29.3956Z" fill="white"/>
</g>
<g id="g2682">
<path id="path2684" d="M45.8843 34.2363L46.927 28.7593C47.1251 27.8136 47.2408 26.9824 47.3403 26.2984H49.062L48.8797 27.7164H48.9121C49.6559 26.6564 50.6824 26.1188 51.8075 26.1188C52.9651 26.1188 53.8588 26.804 53.8588 28.3033C53.8588 28.6612 53.7939 29.2153 53.7107 29.6069L52.8323 34.2363H50.8967L51.7563 29.7537C51.8075 29.4605 51.8566 29.1181 51.8566 28.8081C51.8566 28.1396 51.6085 27.6668 50.8476 27.6668C49.971 27.6668 48.8455 28.7096 48.4983 30.569L47.8036 34.2363H45.8843Z" fill="white"/>
</g>
<g id="g2686">
<path id="path2688" d="M58.9858 27.5363C57.7774 27.5363 56.9841 28.5955 56.7526 29.558C58.7373 29.574 60.0123 29.3132 60.0123 28.352C60.0123 27.8467 59.5986 27.5363 58.9858 27.5363ZM60.8223 33.7789C60.0277 34.1861 58.9534 34.4146 57.9764 34.4146C55.745 34.4146 54.6689 33.0626 54.6689 31.1224C54.6689 28.7263 56.4546 26.1186 59.2343 26.1186C60.8223 26.1186 61.8317 27.0146 61.8317 28.352C61.8317 30.3888 59.6652 31.0404 56.555 30.9756C56.5212 31.2524 56.5874 31.79 56.7697 32.1001C57.0844 32.6385 57.6617 32.9153 58.4239 32.9153C59.3347 32.9153 60.0614 32.6869 60.6422 32.3937L60.8223 33.7789Z" fill="white"/>
</g>
<g id="g2690">
<path id="path2692" d="M66.4785 27.5363C65.2714 27.5363 64.4768 28.5955 64.2453 29.558C66.23 29.574 67.505 29.3132 67.505 28.352C67.505 27.8467 67.0912 27.5363 66.4785 27.5363ZM68.315 33.7789C67.5217 34.1861 66.4461 34.4146 65.4708 34.4146C63.2377 34.4146 62.1616 33.0626 62.1616 31.1224C62.1616 28.7263 63.9473 26.1186 66.727 26.1186C68.315 26.1186 69.3262 27.0146 69.3262 28.352C69.3262 30.3888 67.1579 31.0404 64.0477 30.9756C64.0135 31.2524 64.0801 31.79 64.2624 32.1001C64.5771 32.6385 65.1557 32.9153 65.9166 32.9153C66.8274 32.9153 67.5541 32.6869 68.1349 32.3937L68.315 33.7789Z" fill="white"/>
</g>
<g id="g2694">
<path id="path2696" d="M69.4404 34.2363L70.3832 29.3461C70.598 28.2217 70.7137 26.9992 70.7952 26.2984H72.4669C72.4174 26.836 72.3683 27.39 72.285 27.9613H72.3341C72.8824 26.9012 73.7573 26.1188 74.85 26.1188C74.9999 26.1188 75.1481 26.1356 75.2809 26.1356L74.8995 27.9937C74.8005 27.9768 74.6681 27.9768 74.5353 27.9768C73.1612 27.9768 72.285 29.3461 71.9716 31.0409L71.3589 34.2363H69.4404Z" fill="white"/>
</g>
<g id="g2698">
<path id="path2700" d="M76.7445 27.0242H76.8856C77.0303 27.0242 77.1258 26.9447 77.1258 26.8247C77.1258 26.6895 77.0255 26.6304 76.8808 26.6304C76.8142 26.6304 76.7669 26.6351 76.7445 26.6403V27.0242ZM76.6064 26.5453C76.6766 26.5328 76.7769 26.5237 76.8703 26.5237C77.0167 26.5237 77.114 26.5531 77.1784 26.6101C77.2315 26.6563 77.2621 26.7284 77.2621 26.8113C77.2621 26.9478 77.1749 27.0402 77.0627 27.0769V27.0821C77.1442 27.1097 77.192 27.1853 77.2192 27.2941C77.2534 27.4392 77.2788 27.5415 77.3011 27.5825H77.1583C77.1412 27.5506 77.1171 27.462 77.0899 27.3312C77.0575 27.1861 76.9983 27.1326 76.8738 27.1274H76.7445V27.5825H76.6064V26.5453Z" fill="white"/>
</g>
<g id="g2702">
<path id="path2704" d="M76.9235 26.1183C76.3976 26.1183 75.9702 26.5393 75.9702 27.0575C75.9702 27.5756 76.3976 27.9971 76.9235 27.9971C77.4495 27.9971 77.8768 27.5756 77.8768 27.0575C77.8768 26.5393 77.4495 26.1183 76.9235 26.1183ZM76.9235 26.2634C77.368 26.2634 77.7287 26.6179 77.7287 27.0575C77.7287 27.4966 77.368 27.8524 76.9235 27.8524C76.4778 27.8524 76.1166 27.4966 76.1166 27.0575C76.1166 26.6179 76.4778 26.2634 76.9235 26.2634Z" fill="white"/>
</g>
</g>
<g id="g2666">
<path id="path2668" d="M29.2726 18.6541C29.3528 20.4452 30.9237 27.2803 30.9237 27.2803C31.5009 28.6647 31.9979 27.2803 31.9979 27.2803C33.8984 21.6651 30.0146 18.411 30.0146 18.411C29.0232 17.8401 29.2726 18.6541 29.2726 18.6541ZM51.8229 17.6782C51.8229 17.6782 53.7243 18.9801 51.8229 19.2241C51.8229 19.2241 44.7184 20.0376 39.432 24.9218C39.432 24.9218 31.5009 31.7556 28.5279 39.2432C28.5279 39.2432 27.5364 39.2432 27.8682 37.7789C28.1983 36.3142 30.1798 29.8846 39.0178 21.992C39.0178 21.992 47.5289 14.3416 51.8229 17.6782Z" fill="#FF4600"/>
</g>
</g>
</g>
</svg>
