<svg width="87" height="56" viewBox="0 0 87 56" fill="none" xmlns="http://www.w3.org/2000/svg">
<g id="PayPal">
<rect id="Rectangle" x="0.536133" y="0.45166" width="86.2103" height="55.1746" rx="5.17262" fill="#082069"/>
<g id="Group">
<g id="Group_2">
<path id="Vector" d="M26.1815 36.4873H22.6078C22.3632 36.4873 22.1553 36.665 22.1171 36.9064L20.6717 46.0704C20.643 46.2512 20.783 46.4143 20.9664 46.4143H22.6726C22.9171 46.4143 23.1251 46.2366 23.1633 45.9947L23.5531 43.523C23.5907 43.281 23.7992 43.1034 24.0432 43.1034H25.1746C27.5287 43.1034 28.8873 41.9642 29.2421 39.7068C29.402 38.7191 29.2489 37.9431 28.7865 37.3997C28.2785 36.8029 27.3777 36.4873 26.1815 36.4873ZM26.5938 39.8343C26.3984 41.1166 25.4186 41.1166 24.4712 41.1166H23.9319L24.3103 38.7217C24.3327 38.577 24.4581 38.4704 24.6045 38.4704H24.8516C25.497 38.4704 26.1058 38.4704 26.4203 38.8383C26.6079 39.0577 26.6654 39.3838 26.5938 39.8343Z" fill="white"/>
<path id="Vector_2" d="M36.8644 39.7918H35.153C35.0072 39.7918 34.8813 39.8984 34.8588 40.0432L34.783 40.5218L34.6634 40.3483C34.2929 39.8106 33.4667 39.6309 32.6421 39.6309C30.751 39.6309 29.1358 41.0632 28.8212 43.0724C28.6577 44.0747 28.8902 45.033 29.4587 45.7014C29.9802 46.3159 30.7264 46.5719 31.6143 46.5719C33.138 46.5719 33.983 45.5922 33.983 45.5922L33.9067 46.0677C33.878 46.2495 34.018 46.4126 34.2004 46.4126H35.7419C35.987 46.4126 36.1939 46.2349 36.2326 45.993L37.1575 40.1356C37.1868 39.9554 37.0473 39.7918 36.8644 39.7918ZM34.4789 43.1226C34.3138 44.1003 33.5378 44.7566 32.5481 44.7566C32.0511 44.7566 31.654 44.5972 31.399 44.2952C31.1461 43.9952 31.0499 43.5683 31.1304 43.0928C31.2845 42.1234 32.0736 41.4457 33.0482 41.4457C33.5341 41.4457 33.9292 41.6072 34.1894 41.9118C34.4502 42.2196 34.5536 42.6491 34.4789 43.1226Z" fill="white"/>
<path id="Vector_3" d="M45.9783 39.792H44.2586C44.0945 39.792 43.9404 39.8735 43.8474 40.0099L41.4755 43.5037L40.4701 40.1463C40.4069 39.9362 40.213 39.792 39.9935 39.792H38.3036C38.0982 39.792 37.9556 39.9927 38.0209 40.186L39.9151 45.7449L38.1343 48.2589C37.9942 48.457 38.1353 48.7292 38.3773 48.7292H40.0949C40.2579 48.7292 40.4105 48.6498 40.503 48.516L46.2229 40.2597C46.3598 40.0622 46.2192 39.792 45.9783 39.792Z" fill="white"/>
<path id="Vector_4" d="M51.6723 36.4863H48.098C47.854 36.4863 47.646 36.664 47.6078 36.9054L46.1624 46.0694C46.1337 46.2502 46.2737 46.4133 46.4561 46.4133H48.2903C48.4606 46.4133 48.6064 46.2889 48.6331 46.1196L49.0433 43.522C49.0809 43.2801 49.2894 43.1024 49.5334 43.1024H50.6643C53.0189 43.1024 54.377 41.9632 54.7323 39.7058C54.8928 38.7182 54.7386 37.9422 54.2761 37.3987C53.7687 36.802 52.8684 36.4863 51.6723 36.4863ZM52.0845 39.8333C51.8896 41.1156 50.9098 41.1156 49.9619 41.1156H49.4232L49.802 38.7208C49.8245 38.576 49.9489 38.4694 50.0957 38.4694H50.3429C50.9877 38.4694 51.597 38.4694 51.9116 38.8373C52.0992 39.0568 52.1561 39.3828 52.0845 39.8333Z" fill="white"/>
<path id="Vector_5" d="M62.3543 39.7918H60.644C60.4972 39.7918 60.3723 39.8984 60.3503 40.0432L60.2746 40.5218L60.1544 40.3483C59.7839 39.8106 58.9582 39.6309 58.1337 39.6309C56.2425 39.6309 54.6278 41.0632 54.3133 43.0724C54.1502 44.0747 54.3817 45.033 54.9503 45.7014C55.4728 46.3159 56.218 46.5719 57.1058 46.5719C58.6296 46.5719 59.4745 45.5922 59.4745 45.5922L59.3982 46.0677C59.3695 46.2495 59.5095 46.4126 59.693 46.4126H61.234C61.478 46.4126 61.686 46.2349 61.7241 45.993L62.6496 40.1356C62.6778 39.9554 62.5377 39.7918 62.3543 39.7918ZM59.9689 43.1226C59.8048 44.1003 59.0277 44.7566 58.038 44.7566C57.5421 44.7566 57.1439 44.5972 56.8889 44.2952C56.636 43.9952 56.5409 43.5683 56.6203 43.0928C56.7755 42.1234 57.5635 41.4457 58.5381 41.4457C59.0241 41.4457 59.4191 41.6072 59.6794 41.9118C59.9412 42.2196 60.0446 42.6491 59.9689 43.1226Z" fill="white"/>
<path id="Vector_6" d="M64.3719 36.7377L62.9051 46.0695C62.8764 46.2503 63.0164 46.4133 63.1988 46.4133H64.6734C64.9185 46.4133 65.1265 46.2357 65.1641 45.9937L66.6106 36.8302C66.6393 36.6494 66.4992 36.4858 66.3169 36.4858H64.6656C64.5198 36.4864 64.3944 36.593 64.3719 36.7377Z" fill="white"/>
</g>
<g id="Group_3">
<path id="Vector_7" opacity="0.68" d="M52.462 13.252C52.7455 11.4444 52.4601 10.2146 51.4825 9.10043C50.4061 7.87403 48.4617 7.34863 45.9738 7.34863H38.7523C38.2439 7.34863 37.8108 7.71854 37.7318 8.22098L34.7245 27.2895C34.6653 27.6658 34.9562 28.0059 35.3367 28.0059H39.795L39.4873 29.9572C39.4355 30.2864 39.6897 30.5839 40.0229 30.5839H43.7809C44.2256 30.5839 44.6043 30.2604 44.6736 29.8209L44.7105 29.6297L45.4184 25.1406L45.4641 24.8926C45.5334 24.4533 45.9121 24.1293 46.3568 24.1293H46.9188C50.5595 24.1293 53.4101 22.6504 54.2429 18.3729C54.591 16.5857 54.4109 15.0937 53.4906 14.0448C53.2125 13.7282 52.866 13.4659 52.462 13.252Z" fill="white"/>
<path id="Vector_8" opacity="0.7" d="M52.462 13.252C52.7455 11.4444 52.4601 10.2146 51.4825 9.10043C50.4061 7.87403 48.4617 7.34863 45.9738 7.34863H38.7523C38.2439 7.34863 37.8108 7.71854 37.7318 8.22098L34.7245 27.2895C34.6653 27.6658 34.9562 28.0059 35.3367 28.0059H39.795L40.9149 20.9043L40.8801 21.127C40.9594 20.6248 41.3885 20.2547 41.8971 20.2547H44.0162C48.1777 20.2547 51.4363 18.5639 52.3882 13.6744C52.4166 13.5301 52.4405 13.3897 52.462 13.252Z" fill="white"/>
<path id="Vector_9" d="M42.1181 13.2759C42.1657 12.9739 42.3597 12.7264 42.6208 12.6014C42.7393 12.5446 42.8721 12.5129 43.011 12.5129H48.6718C49.3425 12.5129 49.9678 12.5569 50.5393 12.649C50.7026 12.6752 50.8617 12.7055 51.0162 12.7399C51.1705 12.7742 51.3206 12.8123 51.4656 12.8549C51.5383 12.8759 51.6095 12.8984 51.6798 12.9216C51.9605 13.0149 52.222 13.1247 52.4625 13.2522C52.746 11.4446 52.4606 10.2149 51.4829 9.10066C50.4061 7.87403 48.4617 7.34863 45.9738 7.34863H38.7523C38.2439 7.34863 37.8108 7.71854 37.7318 8.22098L34.7245 27.2895C34.6653 27.6658 34.9562 28.0059 35.3367 28.0059H39.795L40.9149 20.9043L42.1181 13.2759Z" fill="white"/>
</g>
</g>
</g>
</svg>
