<svg width="87" height="56" viewBox="0 0 87 56" fill="none" xmlns="http://www.w3.org/2000/svg">
<g id="Western Union">
<rect id="Rectangle" x="0.555664" y="0.45166" width="86.2103" height="55.1746" rx="5.17262" fill="#0D0D0D"/>
<g id="Group">
<g id="g316">
<path id="path318" d="M8.42236 24.4221H10.1724L10.5899 27.5289H10.6032L11.0628 24.4221H13.0862L13.5441 27.5289H13.5574L13.9759 24.4221H15.7259L14.6603 29.3599H12.5391L12.0818 26.1611H12.0685L11.6102 29.3599H9.4896L8.42236 24.4221Z" fill="#FDDF12"/>
</g>
<g id="g320">
<path id="path322" d="M16.8682 24.4221H20.6241V25.7095H18.7426V26.2346H20.4803V27.5211H18.7426V28.075H20.6853V29.3599H16.8682V24.4221Z" fill="#FDDF12"/>
</g>
<g id="g324">
<g id="g326">
<g id="g332">
<path id="path334" d="M24.6318 25.824C24.6244 25.5163 24.4537 25.4133 24.2004 25.4133C23.8865 25.4133 23.7485 25.55 23.7485 25.7016C23.7485 25.8778 23.8648 25.9536 24.0699 26.0155C24.4462 26.1259 25.1368 26.2613 25.6356 26.4741C26.2594 26.7332 26.5321 27.1789 26.5321 27.7729C26.5321 28.9837 25.5478 29.4902 24.1511 29.4902C22.9615 29.4902 21.8677 29.121 21.8677 27.8348H23.7421C23.7421 27.9728 23.7699 28.1088 23.8447 28.2121C23.9196 28.3064 24.043 28.3679 24.2273 28.3679C24.5142 28.3679 24.7002 28.1833 24.7002 27.965C24.7002 27.781 24.5563 27.6855 24.3708 27.6301L22.9822 27.2204C22.224 26.9943 21.9577 26.535 21.9577 25.8998C21.9577 24.8734 22.7853 24.292 24.2273 24.292C25.4581 24.292 26.3828 24.6762 26.3828 25.824H24.6318Z" fill="#FDDF12"/>
</g>
</g>
</g>
<g id="g336">
<path id="path338" d="M28.8088 25.751H27.5923V24.4224H31.9824V25.751H30.7649V29.3599H28.8088V25.751Z" fill="#FDDF12"/>
</g>
<g id="g340">
<path id="path342" d="M33.2539 24.4221H37.0092V25.7095H35.1293V26.2346H36.866V27.5211H35.1293V28.075H37.0717V29.3599H33.2539V24.4221Z" fill="#FDDF12"/>
</g>
<g id="g344">
<g id="g346">
<g id="g352">
<path id="path354" d="M38.4663 24.4221H41.3869C42.447 24.4221 43.0695 24.7447 43.0695 25.6755C43.0695 26.243 42.8295 26.6722 42.0897 26.8513V26.8646C42.5694 26.906 42.8295 27.1169 42.9248 27.4945C43.0339 27.9179 43.0216 28.6152 43.2464 29.3599H41.3321C41.2165 28.9909 41.1547 28.3687 41.0853 27.9457C41.0458 27.6983 40.9218 27.6043 40.6073 27.6043H40.3809V29.3599H38.4663V24.4221ZM40.5451 26.4811C40.9218 26.4811 41.1951 26.3512 41.1951 25.9829C41.1951 25.6205 40.9415 25.5447 40.5577 25.5447H40.3809V26.4811H40.5451Z" fill="#FDDF12"/>
</g>
</g>
</g>
<g id="g356">
<path id="path358" d="M44.5547 24.4221H46.8994L47.9443 27.4119H47.9592V24.4221H49.5463V29.3599H47.2016L46.1541 26.3512H46.1402V29.3599H44.5547V24.4221Z" fill="#FDDF12"/>
</g>
<g id="g360">
<g id="g362">
<g id="g368">
<path id="path370" d="M26.4905 33.6182C26.4905 34.8091 25.6354 35.4048 24.1451 35.4048C22.6539 35.4048 21.7998 34.8091 21.7998 33.6182V30.3368H23.7552V33.5365C23.7552 33.9262 23.9401 34.0788 24.1451 34.0788C24.3502 34.0788 24.5351 33.9262 24.5351 33.5365V30.3368H26.4905V33.6182Z" fill="#FDDF12"/>
</g>
</g>
</g>
<g id="g372">
<path id="path374" d="M28.0581 30.3361H30.4038L31.4493 33.3254H31.4632V30.3361H33.0494V35.2749H30.704L29.6588 32.2643H29.6433V35.2749H28.0581V30.3361Z" fill="#FDDF12"/>
</g>
<path id="path376" d="M34.6514 30.3361H36.6051V35.2749H34.6514V30.3361Z" fill="#FDDF12"/>
<g id="g378">
<g id="g380">
<g id="g386">
<path id="path388" d="M40.5785 30.2069C42.2819 30.2069 43.1302 31.2664 43.1302 32.8055C43.1302 34.344 42.2819 35.4048 40.5785 35.4048C38.8761 35.4048 38.0288 34.344 38.0288 32.8055C38.0288 31.2664 38.8761 30.2069 40.5785 30.2069ZM40.5785 34.1189C40.8814 34.1189 41.1049 33.9472 41.1049 32.8055C41.1049 31.6903 40.8943 31.4921 40.5785 31.4921C40.265 31.4921 40.0525 31.6903 40.0525 32.8055C40.0525 33.9472 40.2799 34.1189 40.5785 34.1189Z" fill="#FDDF12"/>
</g>
</g>
</g>
<g id="g390">
<path id="path392" d="M44.5547 30.3361H46.8994L47.9443 33.3254H47.9592V30.3361H49.5463V35.2749H47.2016L46.1541 32.2643H46.1402V35.2749H44.5547V30.3361Z" fill="#FDDF12"/>
</g>
<g id="g394">
<g id="g396">
<g id="g402">
<path id="path404" d="M67.9578 24.3523H67.1244L66.1913 31.2833H66.1611L65.1392 24.3523H60.6241L59.5996 31.2833H59.5702L58.6396 24.3523H54.7354L57.1153 35.3667H61.8465L62.8674 28.2312H62.8985L63.9191 35.3667H68.6503L68.8874 34.2651C68.2823 33.6225 67.9578 32.7613 67.9578 31.6739V24.3523Z" fill="#FDDF12"/>
</g>
<g id="g406">
<path id="path408" d="M67.958 24.3518V31.6735C67.958 32.7608 68.2826 33.622 68.8876 34.2646L71.0279 24.3518H67.958Z" fill="white"/>
</g>
<g id="g410">
<path id="path412" d="M74.0592 24.3523V31.4919C74.0592 32.3609 73.6469 32.6994 73.1896 32.6994C72.7322 32.6994 72.3199 32.3609 72.3199 31.4919V24.3523H71.389L69.1904 34.5391C70.0824 35.2812 71.4331 35.6592 73.1896 35.6592C76.5147 35.6592 78.4221 34.3299 78.4221 31.674V24.3523H74.0592Z" fill="#FDDF12"/>
</g>
</g>
</g>
<g id="g414">
<path id="path416" d="M51.8729 24.3523H51.2231L53.5614 35.3667H54.2117L51.8729 24.3523Z" fill="#FDDF12"/>
</g>
<g id="g418">
<path id="path420" d="M55.3384 35.3667H55.9884L53.6499 24.3523H53.0005L55.3384 35.3667Z" fill="#FDDF12"/>
</g>
<g id="g422">
<g id="g424">
<g id="g430">
<path id="path432" d="M79.7387 24.8782C79.7329 24.8043 79.6931 24.7677 79.6176 24.7677C79.5596 24.7677 79.501 24.7982 79.501 24.862C79.501 24.9407 79.5719 24.9501 79.6344 24.965C79.7459 24.9935 79.9094 25.0249 79.9094 25.171C79.9094 25.352 79.7517 25.4146 79.5949 25.4146C79.4284 25.4146 79.3102 25.3501 79.3151 25.1661H79.4748C79.4689 25.2468 79.5156 25.3015 79.5972 25.3015C79.6597 25.3015 79.743 25.2824 79.743 25.2047C79.743 25.1185 79.6387 25.1124 79.5758 25.0965C79.4741 25.0712 79.3342 25.0249 79.3342 24.8953C79.3342 24.7289 79.488 24.6547 79.6377 24.6547C79.7792 24.6547 79.8894 24.7315 79.8894 24.8782H79.7387Z" fill="#FDDF12"/>
</g>
</g>
</g>
<g id="g434">
<path id="path436" d="M80.4864 25.3994H80.3559L80.1632 24.7733L80.1609 24.7753V25.3994H80.0142V24.67H80.271L80.4236 25.2005H80.4255L80.5913 24.67H80.8388V25.3994H80.6924V24.7753L80.6908 24.7733L80.4864 25.3994Z" fill="#FDDF12"/>
</g>
</g>
</g>
</svg>
